<svg width="40" height="40" viewBox="0 0 40 40" fill="none" xmlns="http://www.w3.org/2000/svg">
<circle cx="20" cy="20" r="20" fill="white"/>
<path d="M24.6178 22.3289L23.1123 23.1751C22.9316 23.2765 22.7226 23.3162 22.5172 23.2881C22.3118 23.2599 22.1213 23.1655 21.9748 23.0192L16.9501 18.0064C16.8035 17.8602 16.709 17.6701 16.6808 17.4652C16.6525 17.2603 16.6923 17.0519 16.7939 16.8716L17.642 15.3697C17.7946 15.0994 17.8544 14.7866 17.8122 14.4793C17.7699 14.1719 17.628 13.8867 17.408 13.6674L15.1516 11.4164C15.0194 11.2844 14.8623 11.1797 14.6895 11.1082C14.5167 11.0368 14.3314 11 14.1444 11C13.9573 11 13.772 11.0368 13.5992 11.1082C13.4264 11.1797 13.2694 11.2844 13.1371 11.4164L12.1126 12.4377C11.5135 13.0354 11.1319 13.8158 11.0284 14.6547C10.925 15.4936 11.1056 16.3429 11.5417 17.0677L12.0557 17.9224C14.6809 22.2872 18.3863 25.9059 22.8164 28.4313L22.9179 28.4895C24.4313 29.3521 26.3011 29.1007 27.5128 27.8926L28.5826 26.8253C28.715 26.6933 28.8199 26.5367 28.8915 26.3643C28.9631 26.1919 29 26.0071 29 25.8204C29 25.6338 28.9631 25.449 28.8915 25.2766C28.8199 25.1042 28.715 24.9475 28.5826 24.8156L26.3248 22.5631C26.105 22.3434 25.8191 22.2015 25.5108 22.1592C25.2025 22.117 24.8889 22.1766 24.6178 22.3289Z" fill="#029A51"/>
</svg>
