<svg width="40" height="40" viewBox="0 0 40 40" fill="none" xmlns="http://www.w3.org/2000/svg">
<circle cx="20" cy="20" r="20" fill="white"/>
<path d="M21.6599 16.7783C22.1506 16.221 22.6378 14.9206 20.5932 16.4997C18.6832 17.9926 16.7603 19.4641 14.8247 20.9138C14.53 21.0652 14.2113 21.1474 13.8879 21.1553C13.5645 21.1633 13.243 21.097 12.9428 20.9603C11.716 20.5423 10.2839 19.985 10.2839 19.985C10.2839 19.985 9.30604 19.2873 10.98 18.5442C10.98 18.5442 18.057 15.2457 20.5114 14.0836C21.4519 13.6192 24.6424 12.133 24.6424 12.133C24.6424 12.133 26.1154 11.4817 25.9927 13.0618C25.9518 13.712 25.6247 15.9898 25.2976 18.4513C24.806 21.9356 24.2744 25.746 24.2744 25.746C24.2744 25.746 24.1926 26.8142 23.4974 27C22.7533 26.9857 22.0342 26.6917 21.4528 26.164C21.2892 26.0247 18.385 23.9337 17.3209 22.9119C17.2127 22.8287 17.1247 22.7156 17.0653 22.5834C17.0058 22.4511 16.9768 22.304 16.9809 22.1555C16.985 22.0071 17.022 21.8623 17.0886 21.7345C17.1552 21.6067 17.2492 21.5002 17.3618 21.4247C18.8213 19.9082 20.2543 18.3591 21.6599 16.7783Z" fill="#029A51"/>
</svg>
