<svg width="40" height="40" viewBox="0 0 40 40" fill="none" xmlns="http://www.w3.org/2000/svg">
<circle cx="20" cy="20" r="20" fill="white"/>
<g clip-path="url(#clip0_123_5788)">
<path d="M20.0023 11H19.9978C15.0354 11 11 15.0365 11 20C10.9969 21.8956 11.597 23.7431 12.7134 25.2751L11.5918 28.6186L15.0511 27.5128C16.5186 28.4863 18.2413 29.0038 20.0023 29C24.9646 29 29 24.9624 29 20C29 15.0376 24.9646 11 20.0023 11ZM25.2391 23.7091C25.022 24.3223 24.1603 24.8307 23.4729 24.9792C23.0026 25.0794 22.3884 25.1593 20.3206 24.302C17.6758 23.2063 15.9725 20.5186 15.8398 20.3442C15.7126 20.1699 14.771 18.9211 14.771 17.6296C14.771 16.3381 15.4269 15.7092 15.6913 15.4392C15.9084 15.2176 16.2673 15.1164 16.6115 15.1164C16.7229 15.1164 16.823 15.122 16.913 15.1265C17.1774 15.1378 17.3101 15.1535 17.4845 15.5709C17.7016 16.094 18.2304 17.3855 18.2934 17.5182C18.3575 17.651 18.4216 17.831 18.3316 18.0054C18.2473 18.1854 18.173 18.2652 18.0403 18.4183C17.9075 18.5712 17.7815 18.6883 17.6488 18.8525C17.5273 18.9954 17.39 19.1484 17.543 19.4128C17.696 19.6715 18.2248 20.5344 19.0033 21.2274C20.0079 22.1217 20.8224 22.4075 21.1138 22.529C21.3309 22.619 21.5896 22.5976 21.7483 22.4289C21.9496 22.2118 22.1983 21.8518 22.4514 21.4974C22.6314 21.2431 22.8586 21.2116 23.0971 21.3016C23.3401 21.386 24.626 22.0216 24.8904 22.1532C25.1548 22.286 25.3291 22.349 25.3933 22.4604C25.4563 22.5718 25.4563 23.0949 25.2391 23.7091Z" fill="#029A51"/>
</g>
<defs>
<clipPath id="clip0_123_5788">
<rect width="18" height="18" fill="white" transform="translate(11 11)"/>
</clipPath>
</defs>
</svg>
