<svg width="11" height="13" viewBox="0 0 11 13" fill="none" xmlns="http://www.w3.org/2000/svg">
  <path d="M10.3749 12.1613H9.53621V1.8871C9.53621 1.65552 9.34847 1.46775 9.11686 1.46775H5.97169V0.419362C5.97169 0.187774 5.78396 7.62939e-06 5.55234 7.62939e-06H2.64307C2.41148 7.62939e-06 2.22371 0.187774 2.22371 0.419362V1.46775H1.88299C1.6514 1.46775 1.46363 1.65552 1.46363 1.8871V12.1613H0.624921C0.393333 12.1613 0.205566 12.3491 0.205566 12.5807C0.205566 12.8122 0.393333 13 0.624921 13H10.3749C10.6065 13 10.7943 12.8122 10.7943 12.5807C10.7943 12.3491 10.6065 12.1613 10.3749 12.1613ZM3.06242 0.838717H5.13299V1.46775H3.06242V0.838717ZM4.66121 12.1613V10.379H6.33863V12.1613H4.66121ZM7.17734 12.1613V10.379H7.36081C7.59242 10.379 7.78016 10.1913 7.78016 9.95968C7.78016 9.7281 7.59242 9.54033 7.36081 9.54033C5.90213 9.54033 4.99009 9.54033 3.63903 9.54033C3.40745 9.54033 3.21968 9.7281 3.21968 9.95968C3.21968 10.1913 3.40745 10.379 3.63903 10.379H3.8225V12.1613H2.30234V2.30646H8.6975V12.1613H7.17734ZM4.8971 3.53831C4.8971 3.7699 4.70933 3.95767 4.47774 3.95767H4.00597C3.77438 3.95767 3.58661 3.7699 3.58661 3.53831C3.58661 3.30673 3.77438 3.11896 4.00597 3.11896H4.47774C4.70933 3.11896 4.8971 3.30673 4.8971 3.53831ZM7.38702 3.53831C7.38702 3.7699 7.19928 3.95767 6.96766 3.95767H6.49589C6.26427 3.95767 6.07653 3.7699 6.07653 3.53831C6.07653 3.30673 6.26427 3.11896 6.49589 3.11896H6.96766C7.19928 3.11896 7.38702 3.30673 7.38702 3.53831ZM4.8971 5.11089C4.8971 5.34248 4.70933 5.53025 4.47774 5.53025H4.00597C3.77438 5.53025 3.58661 5.34248 3.58661 5.11089C3.58661 4.87931 3.77438 4.69154 4.00597 4.69154H4.47774C4.70933 4.69154 4.8971 4.87931 4.8971 5.11089ZM7.38702 5.11089C7.38702 5.34248 7.19928 5.53025 6.96766 5.53025H6.49589C6.26427 5.53025 6.07653 5.34248 6.07653 5.11089C6.07653 4.87931 6.26427 4.69154 6.49589 4.69154H6.96766C7.19928 4.69154 7.38702 4.87931 7.38702 5.11089ZM4.8971 6.68348C4.8971 6.91506 4.70933 7.10283 4.47774 7.10283H4.00597C3.77438 7.10283 3.58661 6.91506 3.58661 6.68348C3.58661 6.45189 3.77438 6.26412 4.00597 6.26412H4.47774C4.70933 6.26412 4.8971 6.45189 4.8971 6.68348ZM7.38702 6.68348C7.38702 6.91506 7.19928 7.10283 6.96766 7.10283H6.49589C6.26427 7.10283 6.07653 6.91506 6.07653 6.68348C6.07653 6.45189 6.26427 6.26412 6.49589 6.26412H6.96766C7.19928 6.26412 7.38702 6.45189 7.38702 6.68348ZM4.8971 8.25606C4.8971 8.48764 4.70933 8.67541 4.47774 8.67541H4.00597C3.77438 8.67541 3.58661 8.48764 3.58661 8.25606C3.58661 8.02447 3.77438 7.8367 4.00597 7.8367H4.47774C4.70933 7.8367 4.8971 8.02447 4.8971 8.25606ZM7.38702 8.25606C7.38702 8.48764 7.19928 8.67541 6.96766 8.67541H6.49589C6.26427 8.67541 6.07653 8.48764 6.07653 8.25606C6.07653 8.02447 6.26427 7.8367 6.49589 7.8367H6.96766C7.19928 7.8367 7.38702 8.02447 7.38702 8.25606Z" fill="black"/>
</svg>
