<svg width="14" height="13" viewBox="0 0 14 13" fill="none" xmlns="http://www.w3.org/2000/svg">
  <path d="M10.7652 12.9453C10.6984 12.9453 10.6324 12.9311 10.5715 12.9035C10.5107 12.8759 10.4564 12.8356 10.4124 12.7853L8.8974 11.0544C8.28785 11.2112 7.66086 11.2901 7.03146 11.2891C5.35427 11.2891 3.77365 10.7444 2.58084 9.75562C1.36209 8.74562 0.691772 7.39531 0.691772 5.95312C0.691772 4.51094 1.36271 3.16062 2.58084 2.15062C3.77365 1.16188 5.35427 0.617188 7.03146 0.617188C8.70865 0.617188 10.289 1.16188 11.4818 2.15062C12.7005 3.16062 13.3708 4.51094 13.3708 5.95312C13.3708 7.49281 12.5952 8.93719 11.234 9.95063V12.4766C11.234 12.6009 11.1846 12.7201 11.0967 12.808C11.0088 12.8959 10.8895 12.9453 10.7652 12.9453ZM9.05521 10.0544C9.12203 10.0544 9.18807 10.0686 9.24892 10.0962C9.30977 10.1238 9.36401 10.1641 9.40802 10.2144L10.2965 11.2294V9.70906C10.2964 9.63287 10.315 9.55782 10.3505 9.49041C10.386 9.423 10.4374 9.36526 10.5002 9.32219C11.7286 8.48219 12.433 7.25406 12.433 5.95312C12.433 3.52781 10.0096 1.55469 7.03115 1.55469C4.05271 1.55469 1.62927 3.52781 1.62927 5.95312C1.62927 8.37844 4.05271 10.3516 7.03146 10.3516C7.67075 10.3531 8.30673 10.2598 8.91865 10.0747C8.96295 10.0614 9.00895 10.0545 9.05521 10.0544Z" fill="black"/>
  <path d="M8.99289 4.61162H5.06946C4.94514 4.61162 4.82591 4.56223 4.738 4.47433C4.65009 4.38642 4.60071 4.26719 4.60071 4.14287C4.60071 4.01855 4.65009 3.89932 4.738 3.81141C4.82591 3.7235 4.94514 3.67412 5.06946 3.67412H8.99289C9.11721 3.67412 9.23644 3.7235 9.32435 3.81141C9.41226 3.89932 9.46164 4.01855 9.46164 4.14287C9.46164 4.26719 9.41226 4.38642 9.32435 4.47433C9.23644 4.56223 9.11721 4.61162 8.99289 4.61162Z" fill="black"/>
  <path d="M8.99289 6.38024H5.06946C4.94514 6.38024 4.82591 6.33086 4.738 6.24295C4.65009 6.15504 4.60071 6.03581 4.60071 5.91149C4.60071 5.78717 4.65009 5.66794 4.738 5.58004C4.82591 5.49213 4.94514 5.44274 5.06946 5.44274H8.99289C9.11721 5.44274 9.23644 5.49213 9.32435 5.58004C9.41226 5.66794 9.46164 5.78717 9.46164 5.91149C9.46164 6.03581 9.41226 6.15504 9.32435 6.24295C9.23644 6.33086 9.11721 6.38024 8.99289 6.38024Z" fill="black"/>
  <path d="M8.99289 8.14912H5.06946C4.94514 8.14912 4.82591 8.09973 4.738 8.01182C4.65009 7.92392 4.60071 7.80469 4.60071 7.68037C4.60071 7.55605 4.65009 7.43682 4.738 7.34891C4.82591 7.261 4.94514 7.21162 5.06946 7.21162H8.99289C9.11721 7.21162 9.23644 7.261 9.32435 7.34891C9.41226 7.43682 9.46164 7.55605 9.46164 7.68037C9.46164 7.80469 9.41226 7.92392 9.32435 8.01182C9.23644 8.09973 9.11721 8.14912 8.99289 8.14912Z" fill="black"/>
</svg>
