<svg width="21" height="23" viewBox="0 0 21 23" fill="none" xmlns="http://www.w3.org/2000/svg">
  <path
    d="M0.382614 7.86888C0.319368 6.61286 0.651632 5.3722 1.324 4.33196L1.49914 4.07618L1.51362 4.06216L1.63521 3.91949L1.76259 3.7738L1.77707 3.75879C2.02025 3.50948 2.28949 3.2902 2.57996 3.10297L2.66199 3.05103L2.74402 3.00285L2.93702 2.89171C3.01519 2.85466 3.10011 2.81061 3.17828 2.77356C3.23521 2.75154 3.29215 2.7225 3.34909 2.70047C3.4562 2.65542 3.57008 2.61136 3.68395 2.57432C3.72255 2.55529 3.76308 2.54027 3.80457 2.53026L3.85065 2.51174L3.90108 2.49322C4.42026 2.33802 4.95391 2.23089 5.49336 2.18183L5.4375 2.18837V1.06941C5.4375 0.620751 5.7994 0.257986 6.247 0.257986C6.69459 0.257986 7.0575 0.620751 7.0575 1.06941V4.60612C7.0575 5.05477 6.69459 5.41855 6.247 5.41855C5.7994 5.41855 5.4375 5.05477 5.4375 4.60612L5.43755 3.78845C4.90616 3.84166 4.38438 3.97388 3.8895 4.18331C2.61244 4.75782 2.00338 5.85192 1.94567 7.58578L1.94112 7.86488V8.30042H19.0596V7.85386C19.0924 7.05087 18.9313 6.25188 18.5896 5.52998C18.2615 4.91222 17.7366 4.43262 17.1026 4.1723C16.6988 3.99848 16.2759 3.87721 15.8437 3.81105L15.5625 3.77687L15.5625 4.60204C15.5625 5.04876 15.2001 5.41058 14.7525 5.41058C14.305 5.41058 13.9425 5.04876 13.9425 4.60204L13.9425 3.71612L7.06538 3.71673V2.10774L13.9425 2.10737L13.9425 1.06465C13.9385 0.617926 14.2989 0.25307 14.7465 0.250019C15.194 0.247006 15.5595 0.605798 15.5625 1.05252L15.5632 2.18215C15.9562 2.22093 16.3461 2.2895 16.7297 2.38747L17.1112 2.49522C17.1421 2.50123 17.1653 2.50924 17.2077 2.52426C17.2502 2.53927 17.2859 2.55429 17.3284 2.56831C17.4413 2.60536 17.5465 2.64941 17.6555 2.69447C17.7182 2.71649 17.7761 2.74553 17.8254 2.76756C17.9103 2.8046 17.9971 2.84866 18.0666 2.8857C18.138 2.92275 18.2065 2.9638 18.2664 2.99684C18.3262 3.02988 18.3725 3.06693 18.4227 3.09697C18.6413 3.23814 18.849 3.39734 19.043 3.57245L19.2323 3.75278L19.241 3.7678L19.3734 3.90822L19.4977 4.05615L19.5045 4.07017C20.2323 5.07665 20.6237 6.29897 20.625 7.55128L20.6172 7.86488V8.30042H20.625V17.0239C20.625 20.828 18.5005 22.75 14.2902 22.75H6.70011C2.49946 22.75 0.375 20.828 0.375 17.0239V8.30042H0.382614V7.86888ZM15.1304 16.2771C14.6089 16.2771 14.1937 16.7053 14.1937 17.2331C14.2033 17.7609 14.6186 18.1891 15.1304 18.1891C15.6422 18.1891 16.0574 17.7609 16.0574 17.2331C16.0574 16.7053 15.6422 16.2771 15.1304 16.2771ZM10.5048 16.2671C9.98337 16.2771 9.56813 16.7053 9.56813 17.2331C9.56813 17.7609 9.99303 18.1891 10.5048 18.1891C11.0166 18.1891 11.4319 17.7609 11.4319 17.2231C11.4222 16.7053 11.0166 16.2771 10.5048 16.2671ZM5.86963 16.2671C5.34818 16.2671 4.93294 16.7053 4.9426 17.2331C4.9426 17.7609 5.35783 18.1891 5.86963 18.1891C6.38144 18.1891 6.79667 17.7509 6.79667 17.2231C6.79667 16.6953 6.38144 16.2671 5.86963 16.2671ZM15.1304 12.1941C14.6089 12.1941 14.2033 12.6223 14.2033 13.1501C14.2033 13.6779 14.6186 14.1061 15.1304 14.1061C15.6422 14.1061 16.0574 13.6779 16.0574 13.1501C16.0574 12.6223 15.6422 12.1941 15.1304 12.1941ZM10.5048 12.1842C9.98337 12.1941 9.56813 12.6223 9.56813 13.1501C9.56813 13.6779 9.99303 14.1061 10.5048 14.1061C11.0166 14.1061 11.4319 13.6779 11.4319 13.1402C11.4319 12.6223 11.0166 12.1941 10.5048 12.1842ZM5.87929 12.1842C5.35783 12.1842 4.9426 12.6223 4.9426 13.1501C4.9426 13.6779 5.35783 14.1061 5.86963 14.1061C6.39109 14.1061 6.80633 13.668 6.79667 13.1402C6.79667 12.6124 6.38144 12.1842 5.87929 12.1842Z"
    fill="#08a652"/>
</svg>
