<svg width="13" height="13" viewBox="0 0 13 13" fill="none" xmlns="http://www.w3.org/2000/svg">
  <path d="M5.6875 12.3906H1.21875C1.05713 12.3906 0.902137 12.3264 0.787857 12.2121C0.673577 12.0979 0.609375 11.9429 0.609375 11.7812V1.21875C0.609375 1.05713 0.673577 0.902137 0.787857 0.787857C0.902137 0.673577 1.05713 0.609375 1.21875 0.609375H5.6875C5.84912 0.609375 6.00411 0.673577 6.11839 0.787857C6.23267 0.902137 6.29688 1.05713 6.29688 1.21875V3.65625C6.29688 3.81787 6.23267 3.97286 6.11839 4.08714C6.00411 4.20142 5.84912 4.26562 5.6875 4.26562C5.52588 4.26562 5.37089 4.20142 5.25661 4.08714C5.14233 3.97286 5.07812 3.81787 5.07812 3.65625V1.82812H1.82812V11.1719H5.07812V9.34375C5.07812 9.18213 5.14233 9.02714 5.25661 8.91286C5.37089 8.79858 5.52588 8.73438 5.6875 8.73438C5.84912 8.73438 6.00411 8.79858 6.11839 8.91286C6.23267 9.02714 6.29688 9.18213 6.29688 9.34375V11.7812C6.29688 11.9429 6.23267 12.0979 6.11839 12.2121C6.00411 12.3264 5.84912 12.3906 5.6875 12.3906ZM10.0885 6.5L9.27603 5.89062H4.0625C3.90088 5.89062 3.74589 5.95483 3.63161 6.06911C3.51733 6.18339 3.45312 6.33838 3.45312 6.5C3.45312 6.66162 3.51733 6.81661 3.63161 6.93089C3.74589 7.04517 3.90088 7.10938 4.0625 7.10938H9.27603L10.0885 6.5ZM8.89687 9.425L12.1469 6.9875C12.2226 6.93074 12.284 6.85714 12.3263 6.77252C12.3686 6.68791 12.3906 6.5946 12.3906 6.5C12.3906 6.4054 12.3686 6.31209 12.3263 6.22748C12.284 6.14286 12.2226 6.06926 12.1469 6.0125L8.89687 3.575C8.76758 3.47803 8.60506 3.43639 8.44507 3.45925C8.28508 3.48211 8.14072 3.56758 8.04375 3.69688C7.94678 3.82617 7.90514 3.98869 7.928 4.14868C7.95086 4.30867 8.03633 4.45303 8.16563 4.55L10.7656 6.5L8.16563 8.45C8.10161 8.49801 8.04767 8.55817 8.0069 8.62703C7.96613 8.69589 7.93932 8.7721 7.928 8.85132C7.91668 8.93054 7.92108 9.01121 7.94094 9.08873C7.9608 9.16626 7.99574 9.23911 8.04375 9.30312C8.09176 9.36714 8.15192 9.42108 8.22078 9.46185C8.28964 9.50262 8.36585 9.52943 8.44507 9.54075C8.52429 9.55207 8.60496 9.54767 8.68248 9.52781C8.76001 9.50795 8.83286 9.47301 8.89687 9.425Z" fill="black"/>
</svg>
