<svg width="23" height="22" viewBox="0 0 23 22" fill="none" xmlns="http://www.w3.org/2000/svg">
<path d="M4.17374 3.0233C4.52839 3.0233 4.86851 2.88241 5.11929 2.63164C5.37006 2.38086 5.51095 2.04074 5.51095 1.68609C5.51095 1.33144 5.37006 0.991312 5.11929 0.740537C4.86851 0.489761 4.52839 0.348877 4.17374 0.348877H1.49932C1.14467 0.348877 0.804545 0.489761 0.553769 0.740537C0.302994 0.991312 0.162109 1.33144 0.162109 1.68609V20.407C0.162109 20.7617 0.302994 21.1018 0.553769 21.3526C0.804545 21.6033 1.14467 21.7442 1.49932 21.7442H4.17374C4.52839 21.7442 4.86851 21.6033 5.11929 21.3526C5.37006 21.1018 5.51095 20.7617 5.51095 20.407C5.51095 20.0524 5.37006 19.7122 5.11929 19.4615C4.86851 19.2107 4.52839 19.0698 4.17374 19.0698H2.83653V3.0233H4.17374ZM22.654 10.271L18.883 4.92213C18.6785 4.63385 18.3682 4.43825 18.0199 4.37812C17.6716 4.31798 17.3137 4.39818 17.0243 4.6012C16.8797 4.70254 16.7566 4.83153 16.6621 4.98071C16.5676 5.12989 16.5036 5.29631 16.4737 5.47037C16.4439 5.64442 16.4488 5.82267 16.4882 5.99481C16.5277 6.16694 16.6008 6.32957 16.7034 6.4733L19.0034 9.70934H8.18537C7.83072 9.70934 7.49059 9.85023 7.23982 10.101C6.98904 10.3518 6.84816 10.6919 6.84816 11.0466C6.84816 11.4012 6.98904 11.7413 7.23982 11.9921C7.49059 12.2429 7.83072 12.3838 8.18537 12.3838H18.883L16.4761 15.5931C16.3707 15.7335 16.294 15.8934 16.2505 16.0635C16.2069 16.2336 16.1972 16.4107 16.2221 16.5845C16.2469 16.7583 16.3057 16.9256 16.3952 17.0767C16.4847 17.2278 16.603 17.3598 16.7435 17.4652C16.975 17.6388 17.2565 17.7326 17.5458 17.7326C17.7534 17.7326 17.9582 17.6843 18.1439 17.5914C18.3295 17.4986 18.491 17.3638 18.6156 17.1977L22.6272 11.8489C22.7985 11.6227 22.8934 11.3479 22.8982 11.0643C22.903 10.7806 22.8175 10.5028 22.654 10.271Z" fill="#08A652"/>
</svg>
