<svg width="113" height="36" viewBox="0 0 113 36" fill="none" xmlns="http://www.w3.org/2000/svg">
<path d="M8.5 20L8.37611 21.0029L4.01793 20.673L8.5 15.5L9 17L8.5 20Z" fill="#CA2840"/>
<path d="M19.9023 11.8867V14.6289H10.9961V11.8867H19.9023ZM12.0391 4.9375V22H8.52344V4.9375H12.0391ZM22.4102 4.9375V22H18.9062V4.9375H22.4102ZM25.4688 4.9375H31.832C33.1367 4.9375 34.2578 5.13281 35.1953 5.52344C36.1406 5.91406 36.8672 6.49219 37.375 7.25781C37.8828 8.02344 38.1367 8.96484 38.1367 10.082C38.1367 10.9961 37.9805 11.7812 37.668 12.4375C37.3633 13.0859 36.9297 13.6289 36.3672 14.0664C35.8125 14.4961 35.1602 14.8398 34.4102 15.0977L33.2969 15.6836H27.7656L27.7422 12.9414H31.8555C32.4727 12.9414 32.9844 12.832 33.3906 12.6133C33.7969 12.3945 34.1016 12.0898 34.3047 11.6992C34.5156 11.3086 34.6211 10.8555 34.6211 10.3398C34.6211 9.79297 34.5195 9.32031 34.3164 8.92188C34.1133 8.52344 33.8047 8.21875 33.3906 8.00781C32.9766 7.79688 32.457 7.69141 31.832 7.69141H28.9844V22H25.4688V4.9375ZM35.0078 22L31.1172 14.3945L34.832 14.3711L38.7695 21.8359V22H35.0078ZM47.2891 13.3516V16H40.668V13.3516H47.2891ZM50.3125 4.9375H56.6758C57.9805 4.9375 59.1016 5.13281 60.0391 5.52344C60.9844 5.91406 61.7109 6.49219 62.2188 7.25781C62.7266 8.02344 62.9805 8.96484 62.9805 10.082C62.9805 10.9961 62.8242 11.7812 62.5117 12.4375C62.207 13.0859 61.7734 13.6289 61.2109 14.0664C60.6562 14.4961 60.0039 14.8398 59.2539 15.0977L58.1406 15.6836H52.6094L52.5859 12.9414H56.6992C57.3164 12.9414 57.8281 12.832 58.2344 12.6133C58.6406 12.3945 58.9453 12.0898 59.1484 11.6992C59.3594 11.3086 59.4648 10.8555 59.4648 10.3398C59.4648 9.79297 59.3633 9.32031 59.1602 8.92188C58.957 8.52344 58.6484 8.21875 58.2344 8.00781C57.8203 7.79688 57.3008 7.69141 56.6758 7.69141H53.8281V22H50.3125V4.9375ZM59.8516 22L55.9609 14.3945L59.6758 14.3711L63.6133 21.8359V22H59.8516ZM64.9375 15.7891V15.543C64.9375 14.6133 65.0703 13.7578 65.3359 12.9766C65.6016 12.1875 65.9883 11.5039 66.4961 10.9258C67.0039 10.3477 67.6289 9.89844 68.3711 9.57812C69.1133 9.25 69.9648 9.08594 70.9258 9.08594C71.8867 9.08594 72.7422 9.25 73.4922 9.57812C74.2422 9.89844 74.8711 10.3477 75.3789 10.9258C75.8945 11.5039 76.2852 12.1875 76.5508 12.9766C76.8164 13.7578 76.9492 14.6133 76.9492 15.543V15.7891C76.9492 16.7109 76.8164 17.5664 76.5508 18.3555C76.2852 19.1367 75.8945 19.8203 75.3789 20.4062C74.8711 20.9844 74.2461 21.4336 73.5039 21.7539C72.7617 22.0742 71.9102 22.2344 70.9492 22.2344C69.9883 22.2344 69.1328 22.0742 68.3828 21.7539C67.6406 21.4336 67.0117 20.9844 66.4961 20.4062C65.9883 19.8203 65.6016 19.1367 65.3359 18.3555C65.0703 17.5664 64.9375 16.7109 64.9375 15.7891ZM68.3125 15.543V15.7891C68.3125 16.3203 68.3594 16.8164 68.4531 17.2773C68.5469 17.7383 68.6953 18.1445 68.8984 18.4961C69.1094 18.8398 69.3828 19.1094 69.7188 19.3047C70.0547 19.5 70.4648 19.5977 70.9492 19.5977C71.418 19.5977 71.8203 19.5 72.1562 19.3047C72.4922 19.1094 72.7617 18.8398 72.9648 18.4961C73.168 18.1445 73.3164 17.7383 73.4102 17.2773C73.5117 16.8164 73.5625 16.3203 73.5625 15.7891V15.543C73.5625 15.0273 73.5117 14.543 73.4102 14.0898C73.3164 13.6289 73.1641 13.2227 72.9531 12.8711C72.75 12.5117 72.4805 12.2305 72.1445 12.0273C71.8086 11.8242 71.4023 11.7227 70.9258 11.7227C70.4492 11.7227 70.043 11.8242 69.707 12.0273C69.3789 12.2305 69.1094 12.5117 68.8984 12.8711C68.6953 13.2227 68.5469 13.6289 68.4531 14.0898C68.3594 14.543 68.3125 15.0273 68.3125 15.543ZM79.0234 4H82.3984V19.0938L82.0586 22H79.0234V4ZM90.4258 15.5312V15.7773C90.4258 16.7227 90.3242 17.5898 90.1211 18.3789C89.9258 19.168 89.6211 19.8516 89.207 20.4297C88.793 21 88.2773 21.4453 87.6602 21.7656C87.0508 22.0781 86.332 22.2344 85.5039 22.2344C84.7305 22.2344 84.0586 22.0781 83.4883 21.7656C82.9258 21.4531 82.4531 21.0117 82.0703 20.4414C81.6875 19.8711 81.3789 19.2031 81.1445 18.4375C80.9102 17.6719 80.7344 16.8359 80.6172 15.9297V15.3906C80.7344 14.4844 80.9102 13.6484 81.1445 12.8828C81.3789 12.1172 81.6875 11.4492 82.0703 10.8789C82.4531 10.3086 82.9258 9.86719 83.4883 9.55469C84.0508 9.24219 84.7148 9.08594 85.4805 9.08594C86.3164 9.08594 87.043 9.24609 87.6602 9.56641C88.2852 9.87891 88.8008 10.3242 89.207 10.9023C89.6211 11.4727 89.9258 12.1523 90.1211 12.9414C90.3242 13.7227 90.4258 14.5859 90.4258 15.5312ZM87.0508 15.7773V15.5312C87.0508 15.0156 87.0117 14.5312 86.9336 14.0781C86.8633 13.6172 86.7383 13.2148 86.5586 12.8711C86.3789 12.5195 86.1328 12.2422 85.8203 12.0391C85.5156 11.8359 85.1211 11.7344 84.6367 11.7344C84.1758 11.7344 83.7852 11.8125 83.4648 11.9688C83.1445 12.125 82.8789 12.3438 82.668 12.625C82.4648 12.9062 82.3125 13.2422 82.2109 13.6328C82.1094 14.0156 82.0469 14.4375 82.0234 14.8984V16.4336C82.0469 17.0508 82.1484 17.5977 82.3281 18.0742C82.5156 18.543 82.7969 18.9141 83.1719 19.1875C83.5547 19.4531 84.0508 19.5859 84.6602 19.5859C85.1367 19.5859 85.5312 19.4922 85.8438 19.3047C86.1562 19.1172 86.3984 18.8516 86.5703 18.5078C86.75 18.1641 86.875 17.7617 86.9453 17.3008C87.0156 16.832 87.0508 16.3242 87.0508 15.7773ZM91.9844 15.7891V15.543C91.9844 14.6133 92.1172 13.7578 92.3828 12.9766C92.6484 12.1875 93.0352 11.5039 93.543 10.9258C94.0508 10.3477 94.6758 9.89844 95.418 9.57812C96.1602 9.25 97.0117 9.08594 97.9727 9.08594C98.9336 9.08594 99.7891 9.25 100.539 9.57812C101.289 9.89844 101.918 10.3477 102.426 10.9258C102.941 11.5039 103.332 12.1875 103.598 12.9766C103.863 13.7578 103.996 14.6133 103.996 15.543V15.7891C103.996 16.7109 103.863 17.5664 103.598 18.3555C103.332 19.1367 102.941 19.8203 102.426 20.4062C101.918 20.9844 101.293 21.4336 100.551 21.7539C99.8086 22.0742 98.957 22.2344 97.9961 22.2344C97.0352 22.2344 96.1797 22.0742 95.4297 21.7539C94.6875 21.4336 94.0586 20.9844 93.543 20.4062C93.0352 19.8203 92.6484 19.1367 92.3828 18.3555C92.1172 17.5664 91.9844 16.7109 91.9844 15.7891ZM95.3594 15.543V15.7891C95.3594 16.3203 95.4062 16.8164 95.5 17.2773C95.5938 17.7383 95.7422 18.1445 95.9453 18.4961C96.1562 18.8398 96.4297 19.1094 96.7656 19.3047C97.1016 19.5 97.5117 19.5977 97.9961 19.5977C98.4648 19.5977 98.8672 19.5 99.2031 19.3047C99.5391 19.1094 99.8086 18.8398 100.012 18.4961C100.215 18.1445 100.363 17.7383 100.457 17.2773C100.559 16.8164 100.609 16.3203 100.609 15.7891V15.543C100.609 15.0273 100.559 14.543 100.457 14.0898C100.363 13.6289 100.211 13.2227 100 12.8711C99.7969 12.5117 99.5273 12.2305 99.1914 12.0273C98.8555 11.8242 98.4492 11.7227 97.9727 11.7227C97.4961 11.7227 97.0898 11.8242 96.7539 12.0273C96.4258 12.2305 96.1562 12.5117 95.9453 12.8711C95.7422 13.2227 95.5938 13.6289 95.5 14.0898C95.4062 14.543 95.3594 15.0273 95.3594 15.543ZM112.281 9.32031V11.7109H104.898V9.32031H112.281ZM106.727 6.19141H110.102V18.1797C110.102 18.5469 110.148 18.8281 110.242 19.0234C110.344 19.2188 110.492 19.3555 110.688 19.4336C110.883 19.5039 111.129 19.5391 111.426 19.5391C111.637 19.5391 111.824 19.5312 111.988 19.5156C112.16 19.4922 112.305 19.4688 112.422 19.4453L112.434 21.9297C112.145 22.0234 111.832 22.0977 111.496 22.1523C111.16 22.207 110.789 22.2344 110.383 22.2344C109.641 22.2344 108.992 22.1133 108.438 21.8711C107.891 21.6211 107.469 21.2227 107.172 20.6758C106.875 20.1289 106.727 19.4102 106.727 18.5195V6.19141Z" fill="white"/>
<g filter="url(#filter0_d_276_7228)">
<path d="M4 21.124C4 20.5032 4.50325 20 5.12404 20H54.3638C54.8558 20 55.2906 20.3199 55.437 20.7896L58.5455 30.7637C58.771 31.4874 58.2303 32.2222 57.4723 32.2222H5.12404C4.50325 32.2222 4 31.719 4 31.0982V21.124Z" fill="#FF4560"/>
</g>
<path d="M17.3287 23.2072V24.2138H14.7665V29H13.4735V23.2072H17.3287ZM14.305 25.2601H15.602C16.0635 25.2601 16.464 25.337 16.8035 25.4909C17.143 25.6447 17.4043 25.8609 17.5873 26.1394C17.7703 26.4152 17.8618 26.7388 17.8618 27.1102C17.8618 27.3887 17.8088 27.6433 17.7027 27.8741C17.5992 28.1048 17.4481 28.3051 17.2491 28.4748C17.0529 28.6419 16.8155 28.7719 16.537 28.8647C16.2611 28.9549 15.9495 29 15.602 29H13.4774V23.2072H14.7784V27.9974H15.602C15.8142 27.9974 15.9919 27.9576 16.1351 27.878C16.2784 27.7958 16.3858 27.6871 16.4574 27.5518C16.5317 27.4165 16.5688 27.2667 16.5688 27.1022C16.5688 26.9404 16.5317 26.7972 16.4574 26.6725C16.3858 26.5452 16.2784 26.4457 16.1351 26.3741C15.9919 26.2999 15.8142 26.2627 15.602 26.2627H14.305V25.2601ZM20.7941 27.9735V26.1275C20.7941 25.9975 20.7742 25.8861 20.7344 25.7933C20.6946 25.7004 20.6323 25.6275 20.5474 25.5744C20.4625 25.5214 20.3524 25.4949 20.2172 25.4949C20.1031 25.4949 20.0036 25.5148 19.9188 25.5545C19.8365 25.5943 19.7729 25.6514 19.7278 25.7256C19.6854 25.7999 19.6641 25.8914 19.6641 26.0001H18.4228C18.4228 25.8065 18.4666 25.6262 18.5541 25.4591C18.6416 25.292 18.7663 25.1447 18.9281 25.0174C19.0925 24.8901 19.2888 24.792 19.5169 24.723C19.745 24.6514 20.001 24.6156 20.2848 24.6156C20.6216 24.6156 20.9214 24.6726 21.184 24.7867C21.4492 24.8981 21.6587 25.0665 21.8126 25.292C21.9664 25.5148 22.0433 25.7959 22.0433 26.1354V27.9377C22.0433 28.1977 22.0579 28.4019 22.0871 28.5504C22.1189 28.6963 22.164 28.8236 22.2224 28.9324V29H20.9691C20.9108 28.8753 20.867 28.7215 20.8378 28.5385C20.8086 28.3528 20.7941 28.1645 20.7941 27.9735ZM20.9492 26.3741L20.9572 27.0584H20.3405C20.2026 27.0584 20.0832 27.0757 19.9824 27.1102C19.8843 27.1447 19.8047 27.1924 19.7437 27.2534C19.6827 27.3118 19.6376 27.3807 19.6084 27.4603C19.5819 27.5372 19.5686 27.6221 19.5686 27.7149C19.5686 27.8024 19.5899 27.882 19.6323 27.9536C19.6747 28.0226 19.7331 28.077 19.8074 28.1168C19.8816 28.1565 19.9678 28.1764 20.066 28.1764C20.2278 28.1764 20.3657 28.1446 20.4797 28.0809C20.5965 28.0173 20.6866 27.9404 20.7503 27.8502C20.8139 27.7574 20.8458 27.6712 20.8458 27.5916L21.1442 28.1088C21.0964 28.2149 21.0381 28.325 20.9691 28.439C20.9002 28.5504 20.8126 28.6552 20.7065 28.7533C20.6004 28.8488 20.4718 28.9271 20.3206 28.9881C20.1721 29.0491 19.993 29.0796 19.7835 29.0796C19.5129 29.0796 19.2676 29.0252 19.0475 28.9164C18.8273 28.805 18.6509 28.6525 18.5183 28.4589C18.3883 28.2653 18.3234 28.0425 18.3234 27.7905C18.3234 27.5651 18.3645 27.3648 18.4467 27.1897C18.5289 27.0147 18.6522 26.8662 18.8167 26.7441C18.9838 26.6221 19.1933 26.5306 19.4453 26.4696C19.6973 26.406 19.9917 26.3741 20.3286 26.3741H20.9492ZM24.8562 26.947H23.9889V26.4179H24.5697C24.6997 26.4179 24.8031 26.3993 24.8801 26.3622C24.9596 26.3251 25.0167 26.2733 25.0511 26.207C25.0883 26.1407 25.1068 26.0638 25.1068 25.9763C25.1068 25.8994 25.0923 25.8264 25.0631 25.7575C25.0366 25.6885 24.9862 25.6315 24.9119 25.5864C24.8376 25.5386 24.7315 25.5148 24.5936 25.5148C24.4796 25.5148 24.3788 25.532 24.2912 25.5665C24.2064 25.5983 24.1387 25.6447 24.0883 25.7057C24.0406 25.7667 24.0167 25.8437 24.0167 25.9365H22.7714C22.7714 25.6606 22.8497 25.4246 23.0061 25.2283C23.1626 25.032 23.3735 24.8822 23.6387 24.7787C23.904 24.6726 24.1971 24.6196 24.518 24.6196C24.7965 24.6196 25.0485 24.6474 25.2739 24.7031C25.4994 24.7562 25.6917 24.8357 25.8508 24.9418C26.01 25.0479 26.132 25.1792 26.2169 25.3357C26.3044 25.4896 26.3482 25.6686 26.3482 25.8728C26.3482 26.0187 26.3137 26.1566 26.2447 26.2866C26.1758 26.4166 26.0763 26.5319 25.9463 26.6327C25.8164 26.7309 25.6585 26.8078 25.4729 26.8635C25.2899 26.9192 25.0843 26.947 24.8562 26.947ZM23.9889 26.6606H24.8562C25.1108 26.6606 25.3363 26.6858 25.5326 26.7362C25.7288 26.7839 25.8933 26.8555 26.0259 26.951C26.1585 27.0465 26.258 27.1645 26.3243 27.3051C26.3933 27.443 26.4277 27.6022 26.4277 27.7826C26.4277 27.9868 26.38 28.1698 26.2845 28.3316C26.1917 28.4907 26.0604 28.626 25.8906 28.7374C25.7209 28.8488 25.5193 28.9337 25.2859 28.992C25.0525 29.0504 24.7965 29.0796 24.518 29.0796C24.2209 29.0796 23.9332 29.0318 23.6547 28.9363C23.3762 28.8409 23.1481 28.6936 22.9703 28.4947C22.7926 28.2958 22.7038 28.0398 22.7038 27.7269H23.9491C23.9491 27.8091 23.9716 27.8847 24.0167 27.9536C24.0645 28.0226 24.1361 28.0783 24.2316 28.1207C24.327 28.1632 24.4491 28.1844 24.5976 28.1844C24.7435 28.1844 24.8588 28.1605 24.9437 28.1128C25.0313 28.0624 25.0936 27.9987 25.1307 27.9218C25.1678 27.8449 25.1864 27.7653 25.1864 27.6831C25.1864 27.5611 25.1625 27.4643 25.1148 27.3927C25.0697 27.3184 25.0007 27.264 24.9079 27.2295C24.8177 27.1924 24.705 27.1738 24.5697 27.1738H23.9889V26.6606ZM26.8813 26.8913V26.8078C26.8813 26.4922 26.9264 26.2017 27.0166 25.9365C27.1067 25.6686 27.2394 25.4365 27.4144 25.2402C27.5895 25.044 27.8043 24.8914 28.059 24.7827C28.3136 24.6713 28.6053 24.6156 28.9342 24.6156C29.2684 24.6156 29.5629 24.6713 29.8175 24.7827C30.0748 24.8914 30.2909 25.044 30.466 25.2402C30.6411 25.4365 30.7737 25.6686 30.8639 25.9365C30.954 26.2017 30.9991 26.4922 30.9991 26.8078V26.8913C30.9991 27.2043 30.954 27.4948 30.8639 27.7627C30.7737 28.0279 30.6411 28.26 30.466 28.4589C30.2909 28.6552 30.0761 28.8077 29.8215 28.9164C29.5668 29.0252 29.2738 29.0796 28.9422 29.0796C28.6133 29.0796 28.3202 29.0252 28.0629 28.9164C27.8057 28.8077 27.5895 28.6552 27.4144 28.4589C27.2394 28.26 27.1067 28.0279 27.0166 27.7627C26.9264 27.4948 26.8813 27.2043 26.8813 26.8913ZM28.1266 26.8078V26.8913C28.1266 27.0611 28.1399 27.2202 28.1664 27.3688C28.1956 27.5173 28.242 27.6473 28.3056 27.7587C28.3693 27.8701 28.4528 27.9576 28.5563 28.0213C28.6624 28.0823 28.791 28.1128 28.9422 28.1128C29.0934 28.1128 29.2207 28.0823 29.3241 28.0213C29.4276 27.9576 29.5111 27.8701 29.5748 27.7587C29.6385 27.6473 29.6835 27.5173 29.7101 27.3688C29.7392 27.2202 29.7538 27.0611 29.7538 26.8913V26.8078C29.7538 26.6407 29.7392 26.4842 29.7101 26.3383C29.6835 26.1898 29.6385 26.0585 29.5748 25.9444C29.5111 25.8304 29.4263 25.7415 29.3202 25.6779C29.2167 25.6142 29.0881 25.5824 28.9342 25.5824C28.7857 25.5824 28.6597 25.6142 28.5563 25.6779C28.4528 25.7415 28.3693 25.8304 28.3056 25.9444C28.242 26.0585 28.1956 26.1898 28.1664 26.3383C28.1399 26.4842 28.1266 26.6407 28.1266 26.8078ZM33.8319 27.2216H32.4951L32.4871 26.4338H33.5932C33.7205 26.4338 33.8239 26.4205 33.9035 26.394C33.9831 26.3648 34.0401 26.3224 34.0746 26.2667C34.1117 26.211 34.1303 26.1447 34.1303 26.0678C34.1303 25.9909 34.1183 25.9272 34.0945 25.8768C34.0706 25.8238 34.0335 25.7813 33.9831 25.7495C33.9353 25.715 33.8757 25.6911 33.804 25.6779C33.7324 25.662 33.6489 25.654 33.5534 25.654H32.9765V29H31.7312V24.6952H33.5534C33.8345 24.6952 34.0865 24.7204 34.3093 24.7708C34.5348 24.8185 34.7257 24.8928 34.8822 24.9936C35.0414 25.0917 35.1634 25.2164 35.2483 25.3675C35.3331 25.5161 35.3756 25.6925 35.3756 25.8967C35.3756 26.0293 35.3438 26.154 35.2801 26.2707C35.2191 26.3874 35.1276 26.4908 35.0056 26.581C34.8862 26.6712 34.739 26.7455 34.5639 26.8038C34.3889 26.8595 34.1873 26.894 33.9592 26.9073L33.8319 27.2216ZM33.8319 29H32.2086L32.6105 28.0412H33.8319C33.9566 28.0412 34.0587 28.0266 34.1382 27.9974C34.2178 27.9656 34.2762 27.9205 34.3133 27.8621C34.3531 27.8011 34.373 27.7269 34.373 27.6393C34.373 27.5571 34.3557 27.4855 34.3213 27.4245C34.2894 27.3608 34.2337 27.3118 34.1542 27.2773C34.0746 27.2401 33.9672 27.2216 33.8319 27.2216H32.7696L32.7776 26.4338H33.9512L34.2377 26.7521C34.556 26.7707 34.8159 26.829 35.0175 26.9272C35.2217 27.0226 35.3716 27.1433 35.4671 27.2892C35.5652 27.4351 35.6143 27.5956 35.6143 27.7706C35.6143 27.9749 35.5758 28.1539 35.4989 28.3077C35.422 28.4616 35.3066 28.5902 35.1528 28.6936C35.0016 28.7944 34.8146 28.8714 34.5918 28.9244C34.3716 28.9748 34.1183 29 33.8319 29ZM37.0864 25.9246H38.3197C38.7229 25.9246 39.0677 25.9895 39.3542 26.1195C39.6406 26.2495 39.8608 26.4312 40.0146 26.6646C40.1685 26.898 40.2454 27.1685 40.2454 27.4762C40.2454 27.6963 40.2016 27.9006 40.1141 28.0889C40.0292 28.2746 39.9032 28.435 39.7361 28.5703C39.5717 28.7056 39.3701 28.8117 39.1314 28.8886C38.8927 28.9629 38.6221 29 38.3197 29H36.3225V24.6952H37.5718V28.0412H38.3197C38.4842 28.0412 38.6155 28.016 38.7136 27.9656C38.8144 27.9125 38.8873 27.8422 38.9324 27.7547C38.9802 27.6672 39.0041 27.573 39.0041 27.4722C39.0041 27.3635 38.9802 27.2653 38.9324 27.1778C38.8873 27.0876 38.8144 27.0173 38.7136 26.9669C38.6155 26.9139 38.4842 26.8874 38.3197 26.8874H37.0864V25.9246ZM42.1591 24.6952V29H40.9098V24.6952H42.1591ZM44.3234 27.2972L45.6403 24.6952H46.8817V29H45.6403V26.39L44.3234 29H43.0781V24.6952H44.3234V27.2972ZM45.5687 22.9207H46.4361C46.4361 23.1541 46.3777 23.361 46.261 23.5414C46.1443 23.7217 45.9785 23.8623 45.7637 23.9631C45.5515 24.0639 45.2995 24.1143 45.0077 24.1143C44.5701 24.1143 44.2226 24.0042 43.9654 23.7841C43.7081 23.5613 43.5794 23.2735 43.5794 22.9207H44.4428C44.4428 23.056 44.4852 23.1767 44.5701 23.2828C44.6576 23.3862 44.8035 23.4379 45.0077 23.4379C45.2146 23.4379 45.3592 23.3862 45.4414 23.2828C45.5263 23.1767 45.5687 23.056 45.5687 22.9207Z" fill="white"/>
<defs>
<filter id="filter0_d_276_7228" x="0" y="15" width="62.5977" height="20.2222" filterUnits="userSpaceOnUse" color-interpolation-filters="sRGB">
<feFlood flood-opacity="0" result="BackgroundImageFix"/>
<feColorMatrix in="SourceAlpha" type="matrix" values="0 0 0 0 0 0 0 0 0 0 0 0 0 0 0 0 0 0 127 0" result="hardAlpha"/>
<feOffset dy="-1"/>
<feGaussianBlur stdDeviation="2"/>
<feComposite in2="hardAlpha" operator="out"/>
<feColorMatrix type="matrix" values="0 0 0 0 0 0 0 0 0 0 0 0 0 0 0 0 0 0 0.25 0"/>
<feBlend mode="normal" in2="BackgroundImageFix" result="effect1_dropShadow_276_7228"/>
<feBlend mode="normal" in="SourceGraphic" in2="effect1_dropShadow_276_7228" result="shape"/>
</filter>
</defs>
</svg>
