<svg width="27" height="27" viewBox="0 0 27 27" fill="none" xmlns="http://www.w3.org/2000/svg">
<path d="M22.7812 4.21875H4.21875C3.54742 4.21875 2.90359 4.48543 2.42889 4.96014C1.95418 5.43484 1.6875 6.07867 1.6875 6.75V7.0875L13.1962 13.2722C13.3004 13.3163 13.4123 13.339 13.5253 13.339C13.6384 13.339 13.7503 13.3163 13.8544 13.2722L25.3125 7.0875V6.75C25.3125 6.07867 25.0458 5.43484 24.5711 4.96014C24.0964 4.48543 23.4526 4.21875 22.7812 4.21875ZM25.0425 21.3638C25.2165 21.018 25.3088 20.637 25.3125 20.25V9.00281L17.6344 13.1288L25.0425 21.3638ZM1.6875 9.00281V20.25C1.69117 20.637 1.78354 21.018 1.9575 21.3638L9.36563 13.1288L1.6875 9.00281ZM14.6053 14.7572C14.2541 14.9222 13.8712 15.0086 13.4831 15.0103C13.1221 15.0099 12.7654 14.9322 12.4369 14.7825L10.8928 13.9388L3.1725 22.545C3.50037 22.6976 3.85713 22.7781 4.21875 22.7812H22.7812C23.1457 22.7794 23.5055 22.6988 23.8359 22.545L16.0988 13.9556L14.6053 14.7572Z" fill="#08A652"/>
</svg>
