<svg width="24" height="26" viewBox="0 0 24 26" fill="none" xmlns="http://www.w3.org/2000/svg">
<path d="M10.589 12.8778C14.3222 12.8776 15.6654 9.29543 16.017 6.35295C16.4502 2.72814 14.6615 0 10.589 0C6.51708 0 4.7275 2.72793 5.161 6.35295C5.51297 9.29543 6.8558 12.878 10.589 12.8778Z" fill="#08A652"/>
<path d="M18.7512 14.369C18.8713 14.369 18.9907 14.3724 19.1092 14.3788C18.9316 14.1359 18.7259 13.9217 18.4853 13.7495C17.768 13.2364 16.8389 13.0681 16.0176 12.7588C15.6178 12.6083 15.2598 12.4588 14.9238 12.2886C13.7895 13.4807 12.3103 14.1043 10.5878 14.1044C8.86594 14.1044 7.38692 13.4808 6.25277 12.2886C5.91669 12.4588 5.55861 12.6083 5.1589 12.7588C4.3376 13.0681 3.40861 13.2364 2.69124 13.7495C1.45065 14.6369 1.13004 16.6331 0.878139 17.9948C0.670249 19.1188 0.530586 20.2659 0.489822 21.4076C0.458242 22.292 0.913878 22.416 1.68592 22.683C2.6526 23.0171 3.65073 23.2652 4.65557 23.4685C6.59616 23.8612 8.59649 24.163 10.5882 24.1765C11.5533 24.1699 12.5203 24.0953 13.4816 23.9759C12.7698 22.9875 12.3523 21.7903 12.3523 20.5013C12.3524 17.1199 15.2229 14.369 18.7512 14.369Z" fill="#08A652"/>
<path d="M18.7519 15.5952C15.9248 15.5952 13.6328 17.7917 13.6328 20.501C13.6328 23.2104 15.9248 25.4069 18.7519 25.4069C21.5791 25.4069 23.8711 23.2104 23.8711 20.501C23.8711 17.7917 21.5791 15.5952 18.7519 15.5952ZM20.9916 21.3427H19.6302V22.6473C19.6302 23.1122 19.237 23.489 18.752 23.489C18.2669 23.489 17.8736 23.1122 17.8736 22.6473V21.3427H16.5124C16.0273 21.3427 15.634 20.9659 15.634 20.501C15.634 20.0361 16.0272 19.6592 16.5124 19.6592H17.8736V18.3547C17.8736 17.8898 18.2669 17.5129 18.752 17.5129C19.2371 17.5129 19.6302 17.8898 19.6302 18.3547V19.6592H20.9916C21.4767 19.6592 21.8699 20.0361 21.8699 20.501C21.8699 20.9659 21.4767 21.3427 20.9916 21.3427Z" fill="#08A652"/>
</svg>
