<svg width="26" height="26" viewBox="0 0 26 26" fill="none" xmlns="http://www.w3.org/2000/svg">
<path d="M24.7501 24.4184H22.7443V6.36608C22.7542 6.21983 22.7148 6.07449 22.6324 5.95328C22.55 5.83208 22.4293 5.742 22.2896 5.69747L17.3954 3.65154V24.4184H16.0582V1.01724C16.0582 0.839913 15.9878 0.66985 15.8624 0.544463C15.737 0.419075 15.567 0.348633 15.3896 0.348633H3.35474C3.17742 0.348633 3.00735 0.419075 2.88197 0.544463C2.75658 0.66985 2.68614 0.839913 2.68614 1.01724V24.4184H0.680323C0.502998 24.4184 0.332936 24.4888 0.207549 24.6142C0.082161 24.7396 0.0117188 24.9097 0.0117188 25.087C0.0117188 25.2643 0.082161 25.4344 0.207549 25.5598C0.332936 25.6852 0.502998 25.7556 0.680323 25.7556H24.7501C24.9274 25.7556 25.0975 25.6852 25.2229 25.5598C25.3483 25.4344 25.4187 25.2643 25.4187 25.087C25.4187 24.9097 25.3483 24.7396 25.2229 24.6142C25.0975 24.4888 24.9274 24.4184 24.7501 24.4184ZM19.4013 8.37189H20.7385C20.9158 8.37189 21.0859 8.44233 21.2112 8.56772C21.3366 8.69311 21.4071 8.86317 21.4071 9.04049C21.4036 9.21675 21.3321 9.38483 21.2075 9.50948C21.0828 9.63413 20.9147 9.70568 20.7385 9.7091H19.4013C19.225 9.70568 19.0569 9.63413 18.9323 9.50948C18.8076 9.38483 18.7361 9.21675 18.7326 9.04049C18.7326 8.86317 18.8031 8.69311 18.9285 8.56772C19.0539 8.44233 19.2239 8.37189 19.4013 8.37189ZM19.4013 12.3835H20.7385C20.9158 12.3835 21.0859 12.454 21.2112 12.5793C21.3366 12.7047 21.4071 12.8748 21.4071 13.0521C21.4071 13.2294 21.3366 13.3995 21.2112 13.5249C21.0859 13.6503 20.9158 13.7207 20.7385 13.7207H19.4013C19.2239 13.7207 19.0539 13.6503 18.9285 13.5249C18.8031 13.3995 18.7326 13.2294 18.7326 13.0521C18.7326 12.8748 18.8031 12.7047 18.9285 12.5793C19.0539 12.454 19.2239 12.3835 19.4013 12.3835ZM19.4013 16.3951H20.7385C20.9147 16.3986 21.0828 16.4701 21.2075 16.5948C21.3321 16.7194 21.4036 16.8875 21.4071 17.0637C21.4071 17.2411 21.3366 17.4111 21.2112 17.5365C21.0859 17.6619 20.9158 17.7324 20.7385 17.7324H19.4013C19.2239 17.7324 19.0539 17.6619 18.9285 17.5365C18.8031 17.4111 18.7326 17.2411 18.7326 17.0637C18.7361 16.8875 18.8076 16.7194 18.9323 16.5948C19.0569 16.4701 19.225 16.3986 19.4013 16.3951ZM19.4013 20.4068H20.7385C20.9158 20.4068 21.0859 20.4772 21.2112 20.6026C21.3366 20.728 21.4071 20.8981 21.4071 21.0754C21.4071 21.2527 21.3366 21.4228 21.2112 21.5482C21.0859 21.6735 20.9158 21.744 20.7385 21.744H19.4013C19.2239 21.744 19.0539 21.6735 18.9285 21.5482C18.8031 21.4228 18.7326 21.2527 18.7326 21.0754C18.7326 20.8981 18.8031 20.728 18.9285 20.6026C19.0539 20.4772 19.2239 20.4068 19.4013 20.4068ZM10.7094 4.36026H12.0466C12.2239 4.36026 12.394 4.4307 12.5194 4.55609C12.6448 4.68148 12.7152 4.85154 12.7152 5.02887C12.7152 5.20619 12.6448 5.37625 12.5194 5.50164C12.394 5.62703 12.2239 5.69747 12.0466 5.69747H10.7094C10.5321 5.69747 10.362 5.62703 10.2366 5.50164C10.1112 5.37625 10.0408 5.20619 10.0408 5.02887C10.0408 4.85154 10.1112 4.68148 10.2366 4.55609C10.362 4.4307 10.5321 4.36026 10.7094 4.36026ZM10.7094 8.37189H12.0466C12.2239 8.37189 12.394 8.44233 12.5194 8.56772C12.6448 8.69311 12.7152 8.86317 12.7152 9.04049C12.7152 9.21782 12.6448 9.38788 12.5194 9.51327C12.394 9.63866 12.2239 9.7091 12.0466 9.7091H10.7094C10.5321 9.7091 10.362 9.63866 10.2366 9.51327C10.1112 9.38788 10.0408 9.21782 10.0408 9.04049C10.0408 8.86317 10.1112 8.69311 10.2366 8.56772C10.362 8.44233 10.5321 8.37189 10.7094 8.37189ZM10.7094 12.3835H12.0466C12.2239 12.3835 12.394 12.454 12.5194 12.5793C12.6448 12.7047 12.7152 12.8748 12.7152 13.0521C12.7152 13.2294 12.6448 13.3995 12.5194 13.5249C12.394 13.6503 12.2239 13.7207 12.0466 13.7207H10.7094C10.5321 13.7207 10.362 13.6503 10.2366 13.5249C10.1112 13.3995 10.0408 13.2294 10.0408 13.0521C10.0408 12.8748 10.1112 12.7047 10.2366 12.5793C10.362 12.454 10.5321 12.3835 10.7094 12.3835ZM10.7094 16.3951H12.0466C12.2239 16.3951 12.394 16.4656 12.5194 16.591C12.6448 16.7164 12.7152 16.8864 12.7152 17.0637C12.7152 17.2411 12.6448 17.4111 12.5194 17.5365C12.394 17.6619 12.2239 17.7324 12.0466 17.7324H10.7094C10.5321 17.7324 10.362 17.6619 10.2366 17.5365C10.1112 17.4111 10.0408 17.2411 10.0408 17.0637C10.0408 16.8864 10.1112 16.7164 10.2366 16.591C10.362 16.4656 10.5321 16.3951 10.7094 16.3951ZM6.61753 4.36026H8.03498C8.2123 4.36026 8.38236 4.4307 8.50775 4.55609C8.63314 4.68148 8.70358 4.85154 8.70358 5.02887C8.70358 5.20619 8.63314 5.37625 8.50775 5.50164C8.38236 5.62703 8.2123 5.69747 8.03498 5.69747H6.69777C6.52044 5.69747 6.35038 5.62703 6.22499 5.50164C6.0996 5.37625 6.02916 5.20619 6.02916 5.02887C6.02916 4.85154 6.0996 4.68148 6.22499 4.55609C6.35038 4.4307 6.52044 4.36026 6.69777 4.36026H6.61753ZM6.61753 8.37189H8.03498C8.2123 8.37189 8.38236 8.44233 8.50775 8.56772C8.63314 8.69311 8.70358 8.86317 8.70358 9.04049C8.70358 9.21782 8.63314 9.38788 8.50775 9.51327C8.38236 9.63866 8.2123 9.7091 8.03498 9.7091H6.69777C6.52044 9.7091 6.35038 9.63866 6.22499 9.51327C6.0996 9.38788 6.02916 9.21782 6.02916 9.04049C6.02916 8.86317 6.0996 8.69311 6.22499 8.56772C6.35038 8.44233 6.52044 8.37189 6.69777 8.37189H6.61753ZM6.61753 12.3835H8.03498C8.2123 12.3835 8.38236 12.454 8.50775 12.5793C8.63314 12.7047 8.70358 12.8748 8.70358 13.0521C8.70358 13.2294 8.63314 13.3995 8.50775 13.5249C8.38236 13.6503 8.2123 13.7207 8.03498 13.7207H6.69777C6.52044 13.7207 6.35038 13.6503 6.22499 13.5249C6.0996 13.3995 6.02916 13.2294 6.02916 13.0521C6.02916 12.8748 6.0996 12.7047 6.22499 12.5793C6.35038 12.454 6.52044 12.3835 6.69777 12.3835H6.61753ZM6.61753 16.3951H8.03498C8.2123 16.3951 8.38236 16.4656 8.50775 16.591C8.63314 16.7164 8.70358 16.8864 8.70358 17.0637C8.70358 17.2411 8.63314 17.4111 8.50775 17.5365C8.38236 17.6619 8.2123 17.7324 8.03498 17.7324H6.69777C6.52044 17.7324 6.35038 17.6619 6.22499 17.5365C6.0996 17.4111 6.02916 17.2411 6.02916 17.0637C6.02916 16.8864 6.0996 16.7164 6.22499 16.591C6.35038 16.4656 6.52044 16.3951 6.69777 16.3951H6.61753ZM10.0408 24.4184V21.744H8.70358V24.4184H7.36637V21.0353C7.37661 20.865 7.45154 20.705 7.57584 20.5882C7.70013 20.4714 7.86439 20.4065 8.03498 20.4068H10.7094C10.8867 20.4068 11.0568 20.4772 11.1822 20.6026C11.3076 20.728 11.378 20.8981 11.378 21.0754V24.4184H10.0408Z" fill="#08A652"/>
</svg>
