<svg width="14" height="14" viewBox="0 0 14 14" fill="none" xmlns="http://www.w3.org/2000/svg">
  <path d="M11.9759 4.08342H11.0834V1.16675C11.0835 1.0712 11.0602 0.977074 11.0154 0.892651C10.9707 0.808229 10.9059 0.736092 10.8267 0.682583C10.7479 0.629376 10.6573 0.596246 10.5627 0.586078C10.4681 0.575911 10.3725 0.589016 10.2842 0.62425L1.53421 4.12425C1.45558 4.15908 1.3843 4.20857 1.32421 4.27008C1.10123 4.39539 0.915298 4.57736 0.785212 4.79759C0.655126 5.01781 0.5855 5.26848 0.583374 5.52425V11.9759C0.58491 12.3576 0.737205 12.7232 1.00708 12.993C1.27696 13.2629 1.64255 13.4152 2.02421 13.4167H11.9759C12.3575 13.4152 12.7231 13.2629 12.993 12.993C13.2629 12.7232 13.4152 12.3576 13.4167 11.9759V5.52425C13.4152 5.14259 13.2629 4.777 12.993 4.50712C12.7231 4.23725 12.3575 4.08495 11.9759 4.08342ZM9.91671 4.08342H4.77754L9.91671 2.03008V4.08342ZM12.25 9.91675H9.91671C9.60729 9.91675 9.31054 9.79383 9.09175 9.57504C8.87296 9.35625 8.75004 9.0595 8.75004 8.75008C8.75004 8.44066 8.87296 8.14392 9.09175 7.92513C9.31054 7.70633 9.60729 7.58342 9.91671 7.58342H12.25V9.91675ZM9.91671 6.41675C9.29787 6.41675 8.70438 6.66258 8.26679 7.10017C7.82921 7.53775 7.58337 8.13124 7.58337 8.75008C7.58337 9.36892 7.82921 9.96241 8.26679 10.4C8.70438 10.8376 9.29787 11.0834 9.91671 11.0834H12.25V11.9759C12.25 12.0486 12.2212 12.1184 12.1697 12.1698C12.1183 12.2212 12.0486 12.2501 11.9759 12.2501H2.02421C1.95149 12.2501 1.88176 12.2212 1.83034 12.1698C1.77893 12.1184 1.75004 12.0486 1.75004 11.9759V5.52425C1.75004 5.48825 1.75713 5.45259 1.77091 5.41933C1.78469 5.38607 1.80488 5.35584 1.83034 5.33038C1.8558 5.30493 1.88602 5.28473 1.91929 5.27095C1.95255 5.25717 1.9882 5.25008 2.02421 5.25008H11.9759C12.0119 5.25008 12.0475 5.25717 12.0808 5.27095C12.1141 5.28473 12.1443 5.30493 12.1697 5.33038C12.1952 5.35584 12.2154 5.38607 12.2292 5.41933C12.2429 5.45259 12.25 5.48825 12.25 5.52425V6.41675H9.91671Z" fill="black"/>
  <path d="M10.5 9.33332C10.8221 9.33332 11.0833 9.07216 11.0833 8.74999C11.0833 8.42782 10.8221 8.16666 10.5 8.16666C10.1778 8.16666 9.91663 8.42782 9.91663 8.74999C9.91663 9.07216 10.1778 9.33332 10.5 9.33332Z" fill="black"/>
</svg>
