<svg width="19" height="23" viewBox="0 0 19 23" fill="none" xmlns="http://www.w3.org/2000/svg">
<path d="M8.26465 0.0627728C6.66543 0.327812 5.23691 0.952227 4.06445 1.90906C3.71406 2.19656 3.02227 2.89285 2.74824 3.23426C1.80488 4.4157 1.1625 5.90262 0.942383 7.41649C0.852539 8.03641 0.852539 9.1909 0.942383 9.74793C1.41855 12.7083 3.80391 17.3307 6.58457 20.6864C7.06973 21.2704 8.04902 22.2542 8.42188 22.5282C9.47754 23.3054 10.0301 23.1571 11.4541 21.7241C12.366 20.8122 13.2285 19.7296 14.1943 18.2831C16.2473 15.2194 17.6848 12.0389 18.0576 9.74793C18.1475 9.1909 18.1475 8.03641 18.0576 7.41649C17.5814 4.16863 15.3039 1.44188 12.2178 0.422148C11.2385 0.103203 10.8027 0.0313282 9.63477 0.0178509C8.95644 0.00886726 8.50723 0.0268364 8.26465 0.0627728ZM10.1154 1.50027C11.1172 1.55867 12.2627 1.93602 13.215 2.52449C14.6121 3.37801 15.7621 4.82 16.2832 6.36981C16.5168 7.07508 16.6021 7.54676 16.6291 8.35985C16.6561 9.17742 16.6201 9.56375 16.4359 10.3184C15.7756 13.0497 13.4936 17.1106 10.924 20.1429C10.4344 20.7223 9.71113 21.4186 9.56289 21.4546C9.42363 21.4905 9.30684 21.4097 8.83516 20.9604C8.18828 20.3405 7.17305 19.0827 6.2791 17.7889C4.1543 14.7118 2.70332 11.6122 2.39785 9.48289C2.32148 8.94832 2.3709 7.73543 2.4877 7.19637C3.10762 4.38426 5.27285 2.21004 8.05352 1.61707C8.48477 1.52273 9.34727 1.44188 9.58984 1.46434C9.65273 1.47332 9.88633 1.4868 10.1154 1.50027Z" fill="#08A652"/>
<path d="M8.78146 5.18826C7.51017 5.44881 6.50842 6.33377 6.07267 7.5826C5.95139 7.92401 5.93342 8.04979 5.91545 8.56639C5.90197 9.0201 5.91545 9.24022 5.97385 9.50975C6.31076 11.0281 7.52365 12.1242 9.08244 12.3174C10.6682 12.5105 12.218 11.6076 12.8379 10.1252C13.0401 9.64451 13.1074 9.22225 13.085 8.56639C13.067 8.04979 13.049 7.92401 12.9278 7.5826C12.4875 6.32928 11.4588 5.43084 10.183 5.18377C9.77873 5.10741 9.17228 5.10741 8.78146 5.18826ZM10.0168 6.67069C10.6322 6.83241 11.1399 7.25916 11.4229 7.84764C11.5846 8.19354 11.5891 8.20701 11.5891 8.73709C11.5891 9.24471 11.5801 9.29412 11.4498 9.56815C11.1758 10.1476 10.785 10.5115 10.1965 10.7361C9.81467 10.8844 9.18576 10.8844 8.80392 10.7361C8.23342 10.516 7.84709 10.1656 7.58205 9.62655C7.41135 9.28514 7.41135 9.27615 7.41135 8.74158C7.41135 8.20701 7.41584 8.19354 7.57756 7.84764C8.02678 6.90877 9.04201 6.41912 10.0168 6.67069Z" fill="#08A652"/>
</svg>
