<svg width="19" height="15" viewBox="0 0 19 15" fill="none" xmlns="http://www.w3.org/2000/svg">
<path d="M18.3265 0.809937H13.0431C11.2907 0.809937 10.0742 1.9448 9.50007 2.62878C8.92595 1.9448 7.7094 0.809937 5.95706 0.809937H0.673611C0.430886 0.809937 0.234158 1.00666 0.234158 1.24939V7.28303C0.234158 7.52575 0.430886 7.72248 0.673611 7.72248C0.916335 7.72248 1.11306 7.52575 1.11306 7.28303V1.68884H5.95706C7.65681 1.68884 8.78499 3.11037 9.06062 3.49748V12.4381C8.19387 11.7301 6.75964 11.2375 4.77297 10.9679C3.25545 10.762 1.82092 10.7413 1.11306 10.7467V9.36643C1.11306 9.1237 0.916335 8.92698 0.673611 8.92698C0.430886 8.92698 0.234158 9.1237 0.234158 9.36643V11.1946V13.7508C0.234158 13.9935 0.430886 14.1902 0.673611 14.1902H9.49915C9.49939 14.1902 9.49959 14.1903 9.49978 14.1903C9.49988 14.1903 9.49998 14.1903 9.50007 14.1903C9.50017 14.1903 9.50027 14.1903 9.50037 14.1903C9.50056 14.1903 9.50076 14.1902 9.501 14.1902H18.3265C18.5693 14.1902 18.766 13.9935 18.766 13.7508V11.1946V1.24939C18.766 1.00671 18.5692 0.809937 18.3265 0.809937ZM13.0431 1.68884H17.8871V10.747C17.8319 10.7467 17.7722 10.7464 17.7085 10.7464C16.7474 10.7464 14.8741 10.7991 13.1255 11.1517C11.7022 11.4387 10.6371 11.8698 9.93958 12.4393V3.4967C10.2138 3.10842 11.3341 1.68884 13.0431 1.68884ZM1.11306 11.6262C1.79226 11.6215 3.19822 11.6411 4.65476 11.8388C6.64158 12.1084 8.04036 12.6215 8.7092 13.3113H1.11306V11.6262ZM10.2846 13.3113C11.4592 12.0805 14.7515 11.6254 17.7084 11.6254C17.7725 11.6254 17.832 11.6256 17.887 11.626V13.3113H10.2846V13.3113Z" fill="#08A652"/>
<path d="M12.8562 4.08215H15.964C16.2067 4.08215 16.4035 3.88542 16.4035 3.6427C16.4035 3.39998 16.2067 3.20325 15.964 3.20325H12.8562C12.6135 3.20325 12.4167 3.39998 12.4167 3.6427C12.4167 3.88542 12.6135 4.08215 12.8562 4.08215Z" fill="#08A652"/>
<path d="M12.8562 6.72351H15.964C16.2067 6.72351 16.4035 6.52678 16.4035 6.28406C16.4035 6.04133 16.2067 5.8446 15.964 5.8446H12.8562C12.6135 5.8446 12.4167 6.04133 12.4167 6.28406C12.4167 6.52678 12.6135 6.72351 12.8562 6.72351Z" fill="#08A652"/>
<path d="M12.8562 9.36548H15.964C16.2067 9.36548 16.4035 9.16875 16.4035 8.92603C16.4035 8.6833 16.2067 8.48657 15.964 8.48657H12.8562C12.6135 8.48657 12.4167 8.6833 12.4167 8.92603C12.4167 9.16875 12.6135 9.36548 12.8562 9.36548Z" fill="#08A652"/>
<path d="M3.03567 4.08215H6.14358C6.38631 4.08215 6.58303 3.88542 6.58303 3.6427C6.58303 3.39998 6.38631 3.20325 6.14358 3.20325H3.03567C2.79295 3.20325 2.59622 3.39998 2.59622 3.6427C2.59622 3.88542 2.793 4.08215 3.03567 4.08215Z" fill="#08A652"/>
<path d="M3.03567 6.72351H6.14358C6.38631 6.72351 6.58303 6.52678 6.58303 6.28406C6.58303 6.04133 6.38631 5.8446 6.14358 5.8446H3.03567C2.79295 5.8446 2.59622 6.04133 2.59622 6.28406C2.59622 6.52678 2.793 6.72351 3.03567 6.72351Z" fill="#08A652"/>
<path d="M3.03567 9.36548H6.14358C6.38631 9.36548 6.58303 9.16875 6.58303 8.92603C6.58303 8.6833 6.38631 8.48657 6.14358 8.48657H3.03567C2.79295 8.48657 2.59622 8.6833 2.59622 8.92603C2.59622 9.16875 2.793 9.36548 3.03567 9.36548Z" fill="#08A652"/>
</svg>
