<svg width="19" height="19" viewBox="0 0 19 19" fill="none" xmlns="http://www.w3.org/2000/svg">
<path d="M16.639 1.58318V17.4149C16.5502 18.5527 18.3064 18.5527 18.2177 17.4149V1.58318C18.2255 1.1369 17.8631 0.772331 17.3757 0.779901C16.9318 0.831366 16.6313 1.17729 16.639 1.58318ZM4.74696 5.53372C4.54129 5.5397 4.34608 5.6259 4.20269 5.77341L1.03603 8.94159C0.72904 9.25041 0.72904 9.74916 1.03603 10.058L4.20269 13.2247C4.94455 14.0907 6.1851 12.8501 5.31907 12.1083L2.71213 9.50289L5.31907 6.89601C5.84133 6.39405 5.47104 5.51226 4.74696 5.53372V5.53372ZM5.54172 8.70655C4.48514 8.70655 4.48514 10.2915 5.54172 10.2915H14.2485C15.3051 10.2915 15.3051 8.70655 14.2485 8.70655H5.54172Z" fill="#08A652"/>
</svg>
