<svg width="25" height="25" viewBox="0 0 25 25" fill="none" xmlns="http://www.w3.org/2000/svg">
<path d="M1317.1 602.575C1316.95 602.575 1316.85 602.675 1316.85 602.825C1316.85 602.975 1316.95 603.075 1317.1 603.075H1318.18C1318.33 603.075 1318.43 602.975 1318.43 602.825C1318.43 602.675 1318.33 602.575 1318.18 602.575H1317.1ZM1318.18 603.425H1317.1C1316.95 603.425 1316.85 603.525 1316.85 603.675C1316.85 603.825 1316.95 603.925 1317.1 603.925H1318.18C1318.33 603.925 1318.43 603.825 1318.43 603.675C1318.43 603.525 1318.33 603.425 1318.18 603.425ZM1318.18 604.25H1317.1C1316.95 604.25 1316.85 604.35 1316.85 604.5C1316.85 604.65 1316.95 604.75 1317.1 604.75H1318.18C1318.33 604.75 1318.43 604.65 1318.43 604.5C1318.43 604.375 1318.33 604.25 1318.18 604.25ZM12.5 0.625C5.95 0.625 0.625 5.95 0.625 12.5C0.625 19.05 5.95 24.375 12.5 24.375C19.05 24.375 24.375 19.05 24.375 12.5C24.375 5.95 19.05 0.625 12.5 0.625ZM16.8 13.2L10.4 17.45C9.85 17.825 9.125 17.425 9.125 16.75V8.225C9.125 7.575 9.85 7.175 10.4 7.525L16.8 11.8C17.3 12.15 17.3 12.85 16.8 13.2Z" fill="white"/>
</svg>
