<svg width="10" height="10" viewBox="0 0 10 10" fill="none" xmlns="http://www.w3.org/2000/svg">
<path d="M9.33573 8.06373L6.072 4.8L9.33573 1.53628C9.68809 1.18391 9.68809 0.616634 9.33573 0.264272C8.98337 -0.0880906 8.41609 -0.0880906 8.06373 0.264272L4.8 3.528L1.53628 0.264272C1.18391 -0.0880906 0.616634 -0.0880906 0.264272 0.264272C-0.0880906 0.616634 -0.0880906 1.18391 0.264272 1.53628L3.528 4.8L0.264272 8.06373C-0.0880906 8.41609 -0.0880906 8.98337 0.264272 9.33573C0.616634 9.68809 1.18391 9.68809 1.53628 9.33573L4.8 6.072L8.06373 9.33573C8.41609 9.68809 8.98337 9.68809 9.33573 9.33573C9.68559 8.98337 9.68559 8.41359 9.33573 8.06373Z" fill="#6F7985"/>
</svg>
