<svg width="20" height="20" viewBox="0 0 20 20" fill="none" xmlns="http://www.w3.org/2000/svg">
<path d="M9.99014 0.614319C9.96886 0.614021 9.94757 0.61481 9.92637 0.616681C9.77212 0.634824 9.63012 0.709663 9.52797 0.826656C9.42582 0.943649 9.37081 1.09444 9.37363 1.24973V3.7512C9.36839 3.83648 9.38066 3.92193 9.40968 4.00229C9.43871 4.08265 9.48387 4.15621 9.54241 4.21845C9.60094 4.2807 9.67159 4.3303 9.75001 4.3642C9.82844 4.39811 9.91297 4.4156 9.99841 4.4156C10.0839 4.4156 10.1684 4.39811 10.2468 4.3642C10.3252 4.3303 10.3959 4.2807 10.4544 4.21845C10.5129 4.15621 10.5581 4.08265 10.5871 4.00229C10.6162 3.92193 10.6284 3.83648 10.6232 3.7512V1.24973C10.6245 1.16613 10.609 1.08313 10.5776 1.00562C10.5463 0.928115 10.4998 0.857669 10.4407 0.798442C10.3817 0.739216 10.3115 0.69241 10.2341 0.660786C10.1567 0.629163 10.0737 0.613363 9.99014 0.614319ZM3.80377 3.17957C3.78245 3.18006 3.76116 3.18164 3.74 3.1843C3.62214 3.19733 3.51042 3.24357 3.41782 3.31763C3.32523 3.3917 3.25557 3.49054 3.21696 3.60265C3.17836 3.71476 3.17239 3.83553 3.19975 3.9509C3.22711 4.06627 3.28667 4.1715 3.37151 4.25433L5.13837 6.02119C5.19383 6.08864 5.2628 6.14373 5.34082 6.18293C5.41885 6.22213 5.50422 6.24457 5.59144 6.24881C5.67866 6.25305 5.7658 6.23899 5.84726 6.20754C5.92872 6.17609 6.0027 6.12795 6.06445 6.06621C6.12619 6.00446 6.17434 5.93048 6.20578 5.84902C6.23723 5.76755 6.25129 5.68041 6.24705 5.5932C6.24281 5.50598 6.22037 5.42061 6.18117 5.34258C6.14197 5.26455 6.08688 5.19559 6.01943 5.14012L4.25021 3.37327C4.19222 3.31253 4.1226 3.26408 4.0455 3.2308C3.9684 3.19752 3.88775 3.1801 3.80377 3.17957ZM16.1742 3.1843C16.0118 3.18911 15.8576 3.25687 15.7442 3.37327L13.9774 5.14012C13.9099 5.19559 13.8549 5.26455 13.8157 5.34258C13.7765 5.42061 13.754 5.50598 13.7498 5.5932C13.7455 5.68041 13.7596 5.76755 13.791 5.84902C13.8225 5.93048 13.8706 6.00446 13.9324 6.06621C13.9941 6.12795 14.0681 6.17609 14.1496 6.20754C14.231 6.23899 14.3182 6.25305 14.4054 6.24881C14.4926 6.24457 14.578 6.22213 14.656 6.18293C14.734 6.14373 14.803 6.08864 14.8585 6.02119L16.6253 4.25433C16.7139 4.16636 16.7742 4.05391 16.7983 3.93142C16.8225 3.80894 16.8095 3.68202 16.761 3.56698C16.7125 3.45194 16.6307 3.35403 16.5261 3.28584C16.4216 3.21765 16.299 3.18228 16.1742 3.1843ZM9.99723 5.00076C8.67181 5.00139 7.40086 5.52818 6.46364 6.4654C5.52643 7.40261 4.99963 8.67357 4.999 9.99899C4.999 11.3248 5.52552 12.5964 6.46281 13.5341C7.40009 14.4718 8.6714 14.999 9.99723 14.9996C10.6539 14.9996 11.3042 14.8702 11.9109 14.6189C12.5176 14.3676 13.0688 13.9993 13.5332 13.5349C13.9975 13.0706 14.3659 12.5193 14.6172 11.9126C14.8685 11.3059 14.9978 10.6557 14.9978 9.99899C14.9972 8.67316 14.4701 7.40185 13.5323 6.46456C12.5946 5.52728 11.3231 5.00076 9.99723 5.00076ZM1.25033 9.37539C1.16505 9.37014 1.0796 9.38241 0.999246 9.41144C0.918888 9.44046 0.845323 9.48563 0.783081 9.54416C0.720839 9.60269 0.671238 9.67335 0.637333 9.75177C0.603428 9.8302 0.585938 9.91473 0.585938 10.0002C0.585938 10.0856 0.603428 10.1701 0.637333 10.2486C0.671238 10.327 0.720839 10.3976 0.783081 10.4562C0.845323 10.5147 0.918888 10.5599 0.999246 10.5889C1.0796 10.6179 1.16505 10.6302 1.25033 10.6249H3.75181C3.91782 10.6249 4.07704 10.559 4.19443 10.4416C4.31182 10.3242 4.37777 10.165 4.37777 9.99899C4.37777 9.83297 4.31182 9.67376 4.19443 9.55637C4.07704 9.43898 3.91782 9.37303 3.75181 9.37303H1.24797L1.25033 9.37539ZM16.2497 9.37539C16.1645 9.37014 16.079 9.38241 15.9987 9.41144C15.9183 9.44046 15.8447 9.48563 15.7825 9.54416C15.7202 9.60269 15.6706 9.67335 15.6367 9.75177C15.6028 9.8302 15.5853 9.91473 15.5853 10.0002C15.5853 10.0856 15.6028 10.1701 15.6367 10.2486C15.6706 10.327 15.7202 10.3976 15.7825 10.4562C15.8447 10.5147 15.9183 10.5599 15.9987 10.5889C16.079 10.6179 16.1645 10.6302 16.2497 10.6249H18.7489C18.9149 10.6249 19.0741 10.559 19.1915 10.4416C19.3089 10.3242 19.3748 10.165 19.3748 9.99899C19.3748 9.83297 19.3089 9.67376 19.1915 9.55637C19.0741 9.43898 18.9149 9.37303 18.7489 9.37303H16.2497V9.37539ZM14.4073 13.7855C14.386 13.7859 14.3647 13.7875 14.3435 13.7902C14.2257 13.8032 14.1139 13.8495 14.0213 13.9235C13.9287 13.9976 13.8591 14.0964 13.8205 14.2085C13.7819 14.3206 13.7759 14.4414 13.8033 14.5568C13.8306 14.6721 13.8902 14.7774 13.975 14.8602L15.7419 16.6271C15.7974 16.6945 15.8663 16.7496 15.9443 16.7888C16.0224 16.828 16.1077 16.8504 16.195 16.8547C16.2822 16.8589 16.3693 16.8449 16.4508 16.8134C16.5322 16.782 16.6062 16.7338 16.668 16.6721C16.7297 16.6103 16.7779 16.5364 16.8093 16.4549C16.8407 16.3734 16.8548 16.2863 16.8506 16.1991C16.8463 16.1119 16.8239 16.0265 16.7847 15.9485C16.7455 15.8704 16.6904 15.8015 16.623 15.746L14.8561 13.9791C14.7981 13.9184 14.7285 13.87 14.6514 13.8367C14.5743 13.8034 14.4913 13.786 14.4073 13.7855ZM5.56355 13.7902C5.40198 13.7956 5.24877 13.8633 5.136 13.9791L3.36915 15.746C3.3017 15.8015 3.24661 15.8704 3.20741 15.9485C3.16821 16.0265 3.14577 16.1119 3.14153 16.1991C3.13729 16.2863 3.15135 16.3734 3.1828 16.4549C3.21424 16.5364 3.26239 16.6103 3.32413 16.6721C3.38588 16.7338 3.45986 16.782 3.54132 16.8134C3.62278 16.8449 3.70992 16.8589 3.79714 16.8547C3.88436 16.8504 3.96973 16.828 4.04776 16.7888C4.12578 16.7496 4.19475 16.6945 4.25021 16.6271L6.01707 14.8602C6.10582 14.7721 6.16614 14.6594 6.19025 14.5367C6.21437 14.414 6.20117 14.2869 6.15237 14.1717C6.10357 14.0566 6.02139 13.9587 5.91644 13.8907C5.8115 13.8227 5.68858 13.7877 5.56355 13.7902ZM9.98542 15.6161C9.82023 15.6192 9.66296 15.6875 9.54791 15.8061C9.43287 15.9247 9.36937 16.0839 9.37127 16.2491V18.7482C9.36602 18.8335 9.37829 18.919 9.40732 18.9993C9.43634 19.0797 9.48151 19.1533 9.54004 19.2155C9.59857 19.2777 9.66923 19.3273 9.74765 19.3612C9.82607 19.3952 9.91061 19.4126 9.99605 19.4126C10.0815 19.4126 10.166 19.3952 10.2444 19.3612C10.3229 19.3273 10.3935 19.2777 10.4521 19.2155C10.5106 19.1533 10.5558 19.0797 10.5848 18.9993C10.6138 18.919 10.6261 18.8335 10.6208 18.7482V16.2515C10.6218 16.1677 10.6059 16.0846 10.5741 16.007C10.5424 15.9295 10.4954 15.8591 10.4359 15.8C10.3764 15.741 10.3057 15.6945 10.2279 15.6633C10.1501 15.6321 10.0668 15.6169 9.98306 15.6185L9.98542 15.6161Z" fill="#FFC73D"/>
</svg>
