<svg width="8" height="5" viewBox="0 0 8 5" fill="none" xmlns="http://www.w3.org/2000/svg">
<path d="M3.9795 4.21955L7.26487 0.934123C7.34092 0.858135 7.38281 0.756698 7.38281 0.648538C7.38281 0.540379 7.34092 0.438941 7.26487 0.362953L7.02298 0.121004C6.86536 -0.0364334 6.60919 -0.0364334 6.45181 0.121004L3.69296 2.87986L0.931043 0.117943C0.854995 0.0419551 0.753618 -2.89771e-07 0.645518 -2.94496e-07C0.537299 -2.99227e-07 0.435921 0.0419551 0.359813 0.117943L0.117985 0.359892C0.0419366 0.43594 4.14196e-05 0.537317 4.14149e-05 0.645477C4.14102e-05 0.753637 0.0419366 0.855074 0.117984 0.931062L3.40635 4.21955C3.48264 4.29572 3.5845 4.33755 3.69278 4.33731C3.80148 4.33755 3.90327 4.29572 3.9795 4.21955Z" fill="#6F7985"/>
</svg>
