<svg width="18" height="18" viewBox="0 0 18 18" fill="none" xmlns="http://www.w3.org/2000/svg">
<path d="M15.4167 9.91667V14.5C15.4167 15.0042 15.0042 15.4167 14.5 15.4167H3.5C2.99583 15.4167 2.58333 15.0042 2.58333 14.5V9.91667C2.58333 9.4125 2.17083 9 1.66667 9C1.1625 9 0.75 9.4125 0.75 9.91667V15.4167C0.75 16.425 1.575 17.25 2.58333 17.25H15.4167C16.425 17.25 17.25 16.425 17.25 15.4167V9.91667C17.25 9.4125 16.8375 9 16.3333 9C15.8292 9 15.4167 9.4125 15.4167 9.91667ZM9.91667 9.61417L11.64 7.89083C11.9975 7.53333 12.575 7.53333 12.9325 7.89083C13.29 8.24833 13.29 8.82583 12.9325 9.18333L9.64167 12.4742C9.28417 12.8317 8.70667 12.8317 8.34917 12.4742L5.05833 9.18333C4.70083 8.82583 4.70083 8.24833 5.05833 7.89083C5.41583 7.53333 5.99333 7.53333 6.35083 7.89083L8.08333 9.61417V1.66667C8.08333 1.1625 8.49583 0.75 9 0.75C9.50417 0.75 9.91667 1.1625 9.91667 1.66667V9.61417Z" fill="white"/>
</svg>
