<svg width="19" height="19" viewBox="0 0 19 19" fill="none" xmlns="http://www.w3.org/2000/svg">
<g clip-path="url(#clip0_2947_7073)">
<path d="M1.29589 0.230957H14.4468C14.7027 0.230957 14.9102 0.438313 14.9102 0.694142V2.63373H17.7066C17.9625 2.63373 18.1698 2.84108 18.1698 3.09691V18.3055C18.1698 18.5613 17.9625 18.7687 17.7066 18.7687H4.55568C4.29986 18.7687 4.09228 18.5613 4.09228 18.3055V16.3659H1.29589C1.04006 16.3659 0.832703 16.1585 0.832703 15.9027V0.694142C0.832703 0.438313 1.04006 0.230957 1.29589 0.230957ZM14.9102 3.56032V15.9027C14.9102 16.1585 14.7027 16.3659 14.4468 16.3659H5.01909V17.8421H17.2432V3.56032H14.9102ZM6.47979 7.52544C6.36062 8.12058 5.4558 7.93971 5.57474 7.34457C5.69435 6.74943 6.03994 6.22633 6.53723 5.88096C6.51435 5.85134 6.49235 5.82082 6.47148 5.78962C6.29083 5.52011 6.18536 5.19763 6.18536 4.85248C6.18536 3.9214 6.94028 3.16648 7.87136 3.16648C8.80244 3.16648 9.55736 3.9214 9.55736 4.85248C9.55736 5.2259 9.43326 5.58586 9.20548 5.88096C9.703 6.2261 10.0486 6.74943 10.168 7.34457C10.2869 7.93971 9.3821 8.12058 9.26316 7.52544C9.16531 7.03892 8.81254 6.63498 8.34509 6.47004C8.19204 6.51559 8.03114 6.53871 7.87136 6.53871C7.71203 6.53871 7.55068 6.51559 7.39763 6.47004C6.93018 6.63498 6.5774 7.0387 6.47979 7.52544ZM7.87136 5.61211C8.29617 5.61211 8.63077 5.2737 8.63077 4.85248C8.63077 4.43306 8.29078 4.09307 7.87136 4.09307C7.45194 4.09307 7.11195 4.43306 7.11195 4.85248C7.11195 5.27729 7.45059 5.61211 7.87136 5.61211ZM4.47198 10.0754C3.86248 10.0754 3.86248 9.14884 4.47198 9.14884H11.271C11.8805 9.14884 11.8805 10.0754 11.271 10.0754H4.47198ZM4.47198 13.4304C3.86248 13.4304 3.86248 12.5038 4.47198 12.5038H11.271C11.8805 12.5038 11.8805 13.4304 11.271 13.4304H4.47198ZM4.47198 11.7529C3.86248 11.7529 3.86248 10.8263 4.47198 10.8263H11.271C11.8805 10.8263 11.8805 11.7529 11.271 11.7529H4.47198ZM13.9834 1.15755H1.7593V15.4393H13.9834V1.15755Z" fill="#08A652"/>
</g>
<defs>
<clipPath id="clip0_2947_7073">
<rect width="19" height="19" fill="white"/>
</clipPath>
</defs>
</svg>
