<svg width="19" height="18" viewBox="0 0 19 18" fill="none" xmlns="http://www.w3.org/2000/svg">
<path d="M0.633333 3.2139H0.723267C0.861505 3.76524 1.17677 4.25411 1.61925 4.60328C2.06174 4.95244 2.60621 5.142 3.16667 5.142C3.72712 5.142 4.2716 4.95244 4.71408 4.60328C5.15656 4.25411 5.47183 3.76524 5.61007 3.2139H18.3667C18.5346 3.2139 18.6957 3.14616 18.8145 3.0256C18.9333 2.90503 19 2.74151 19 2.571C19 2.40049 18.9333 2.23697 18.8145 2.1164C18.6957 1.99583 18.5346 1.9281 18.3667 1.9281H5.61007C5.47183 1.37676 5.15656 0.887888 4.71408 0.538722C4.2716 0.189556 3.72712 0 3.16667 0C2.60621 0 2.06174 0.189556 1.61925 0.538722C1.17677 0.887888 0.861505 1.37676 0.723267 1.9281H0.633333C0.465363 1.9281 0.304272 1.99583 0.185499 2.1164C0.066726 2.23697 0 2.40049 0 2.571C0 2.74151 0.066726 2.90503 0.185499 3.0256C0.304272 3.14616 0.465363 3.2139 0.633333 3.2139ZM3.16667 1.2852C3.41719 1.2852 3.66209 1.36061 3.87039 1.5019C4.07869 1.64318 4.24104 1.844 4.33691 2.07894C4.43279 2.31389 4.45787 2.57242 4.40899 2.82185C4.36012 3.07127 4.23948 3.30037 4.06234 3.4802C3.88519 3.66002 3.65949 3.78248 3.41378 3.83209C3.16807 3.88171 2.91339 3.85624 2.68193 3.75892C2.45048 3.6616 2.25266 3.4968 2.11347 3.28535C1.97429 3.0739 1.9 2.82531 1.9 2.571C1.9 2.22998 2.03345 1.90294 2.271 1.6618C2.50854 1.42067 2.83073 1.2852 3.16667 1.2852ZM18.3667 8.3571H18.2767C18.1385 7.80576 17.8232 7.31689 17.3807 6.96772C16.9383 6.61856 16.3938 6.429 15.8333 6.429C15.2729 6.429 14.7284 6.61856 14.2859 6.96772C13.8434 7.31689 13.5282 7.80576 13.3899 8.3571H0.633333C0.465363 8.3571 0.304272 8.42483 0.185499 8.5454C0.066726 8.66597 0 8.82949 0 9C0 9.17051 0.066726 9.33403 0.185499 9.4546C0.304272 9.57517 0.465363 9.6429 0.633333 9.6429H13.3899C13.5282 10.1942 13.8434 10.6831 14.2859 11.0323C14.7284 11.3814 15.2729 11.571 15.8333 11.571C16.3938 11.571 16.9383 11.3814 17.3807 11.0323C17.8232 10.6831 18.1385 10.1942 18.2767 9.6429H18.3667C18.5346 9.6429 18.6957 9.57517 18.8145 9.4546C18.9333 9.33403 19 9.17051 19 9C19 8.82949 18.9333 8.66597 18.8145 8.5454C18.6957 8.42483 18.5346 8.3571 18.3667 8.3571ZM15.8333 10.2858C15.5828 10.2858 15.3379 10.2104 15.1296 10.0691C14.9213 9.92782 14.759 9.727 14.6631 9.49205C14.5672 9.2571 14.5421 8.99857 14.591 8.74915C14.6399 8.49973 14.7605 8.27062 14.9377 8.0908C15.1148 7.91098 15.3405 7.78852 15.5862 7.73891C15.8319 7.68929 16.0866 7.71476 16.3181 7.81207C16.5495 7.90939 16.7473 8.0742 16.8865 8.28565C17.0257 8.4971 17.1 8.74569 17.1 9C17.1 9.34101 16.9665 9.66806 16.729 9.9092C16.4915 10.1503 16.1693 10.2858 15.8333 10.2858ZM18.3667 14.7861H11.9434C11.8052 14.2348 11.4899 13.7459 11.0474 13.3967C10.6049 13.0476 10.0605 12.858 9.5 12.858C8.93955 12.858 8.39507 13.0476 7.95259 13.3967C7.5101 13.7459 7.19484 14.2348 7.0566 14.7861H0.633333C0.465363 14.7861 0.304272 14.8538 0.185499 14.9744C0.066726 15.095 0 15.2585 0 15.429C0 15.5995 0.066726 15.763 0.185499 15.8836C0.304272 16.0042 0.465363 16.0719 0.633333 16.0719H7.0566C7.19484 16.6232 7.5101 17.1121 7.95259 17.4613C8.39507 17.8104 8.93955 18 9.5 18C10.0605 18 10.6049 17.8104 11.0474 17.4613C11.4899 17.1121 11.8052 16.6232 11.9434 16.0719H18.3667C18.5346 16.0719 18.6957 16.0042 18.8145 15.8836C18.9333 15.763 19 15.5995 19 15.429C19 15.2585 18.9333 15.095 18.8145 14.9744C18.6957 14.8538 18.5346 14.7861 18.3667 14.7861ZM9.5 16.7148C9.24948 16.7148 9.00458 16.6394 8.79628 16.4981C8.58798 16.3568 8.42562 16.156 8.32975 15.9211C8.23388 15.6861 8.2088 15.4276 8.25767 15.1782C8.30655 14.9287 8.42719 14.6996 8.60433 14.5198C8.78148 14.34 9.00718 14.2175 9.25289 14.1679C9.4986 14.1183 9.75328 14.1438 9.98473 14.2411C10.2162 14.3384 10.414 14.5032 10.5532 14.7146C10.6924 14.9261 10.7667 15.1747 10.7667 15.429C10.7667 15.77 10.6332 16.0971 10.3957 16.3382C10.1581 16.5793 9.83594 16.7148 9.5 16.7148Z" fill="#08A652"/>
</svg>
