<svg width="16" height="16" viewBox="0 0 16 16" fill="none" xmlns="http://www.w3.org/2000/svg">
  <path d="M16 2.82813L16 1.89063L4.6875 1.89062L4.6875 0.953125L1.875 0.953124L1.875 1.89062L9.12695e-07 1.89062L8.71715e-07 2.82812L1.875 2.82812L1.875 3.76562L4.6875 3.76562L4.6875 2.82812L16 2.82813Z" fill="white"/>
  <path d="M4.6875 14.1094L16 14.1094L16 13.1719L4.6875 13.1719L4.6875 12.2344L1.875 12.2344L1.875 13.1719L2.82004e-06 13.1719L2.77906e-06 14.1094L1.875 14.1094L1.875 15.0469L4.6875 15.0469L4.6875 14.1094Z" fill="white"/>
  <path d="M16 10.3594L16 9.42188L9.0625 9.42187L9.0625 8.48437L6.25 8.48437L6.25 9.42187L9.12695e-07 9.42187L8.71715e-07 10.3594L6.25 10.3594L6.25 11.2969L9.0625 11.2969L9.0625 10.3594L16 10.3594Z" fill="white"/>
  <path d="M16 6.57813L16 5.64063L14.3234 5.64063L14.3234 4.70312L11.5109 4.70312L11.5109 5.64063L9.12695e-07 5.64062L8.71715e-07 6.57813L11.5109 6.57813L11.5109 7.51563L14.3234 7.51563L14.3234 6.57813L16 6.57813Z" fill="white"/>
</svg>
