<svg width="23" height="21" viewBox="0 0 23 21" fill="none" xmlns="http://www.w3.org/2000/svg">
  <path fill-rule="evenodd" clip-rule="evenodd" d="M2.07229 0.367188H20.9278C21.8699 0.367188 22.6406 1.138 22.6406 2.08006V13.864C22.6406 14.4393 22.3531 14.9507 21.9148 15.2617L20.5818 13.9682C20.3098 13.7043 19.9372 13.6061 19.5903 13.6717L19.0544 13.1468C19.1304 12.9987 19.1987 12.8467 19.2592 12.6915H21.2082V2.03711C21.2082 1.90648 21.1013 1.79957 20.9707 1.79957H2.0293C1.89867 1.79957 1.79175 1.90648 1.79175 2.03711V12.6915H10.1521C10.8609 14.5143 12.6325 15.8064 14.7056 15.8064C14.8049 15.8064 14.9035 15.8031 15.0013 15.7973V18.2983H17.6086C18.412 18.2983 19.0693 18.8235 19.0693 19.4654V20.1833C19.0693 20.4307 18.8675 20.6325 18.6201 20.6325H4.37988C4.13245 20.6325 3.93066 20.4307 3.93066 20.1833V19.4654C3.93066 18.8235 4.58796 18.2983 5.39139 18.2983H7.99865V15.5769H2.07229C1.13019 15.5769 0.359375 14.8061 0.359375 13.864V2.08006C0.359375 1.138 1.13019 0.367188 2.07229 0.367188ZM14.7056 6.75678C12.4051 6.75678 10.5402 8.62172 10.5402 10.9223C10.5402 13.2228 12.4051 15.0877 14.7056 15.0877C15.7329 15.0877 16.6732 14.7156 17.3995 14.0991L18.6777 15.3511L18.6307 15.3995C18.4761 15.5588 18.48 15.8156 18.6393 15.9701L21.0766 18.3352C21.2359 18.4898 21.4926 18.4859 21.6471 18.3266L22.5271 17.4198C22.6817 17.2605 22.6777 17.0038 22.5185 16.8492L20.0812 14.4841C19.922 14.3295 19.6652 14.3334 19.5106 14.4926L19.4574 14.5476L18.1492 13.2664C18.6046 12.5986 18.8711 11.7916 18.8711 10.9223C18.8711 8.62172 17.0061 6.75678 14.7056 6.75678ZM14.7056 7.93118C13.0537 7.93118 11.7146 9.2703 11.7146 10.9222C11.7146 12.5741 13.0537 13.9132 14.7056 13.9132C16.3575 13.9132 17.6967 12.5741 17.6967 10.9222C17.6967 9.27034 16.3575 7.93118 14.7056 7.93118ZM6.37379 8.99654C6.21875 8.91073 6.0444 8.86584 5.8672 8.86609C5.28838 8.86609 4.81917 9.3353 4.81917 9.91412C4.81917 10.4929 5.28838 10.9621 5.8672 10.9621C6.44602 10.9621 6.91523 10.4929 6.91523 9.91412C6.91523 9.78164 6.89057 9.65492 6.84573 9.53821L9.11591 7.56102C9.27094 7.64683 9.44529 7.69173 9.62249 7.69147C9.89254 7.69185 10.1522 7.5876 10.3471 7.40061L11.0109 7.72804C11.1767 7.53662 11.357 7.3583 11.5503 7.19468L10.6643 6.75768C10.6683 6.72017 10.6705 6.68208 10.6705 6.64349C10.6705 6.06467 10.2013 5.59546 9.62245 5.59546C9.04363 5.59546 8.57442 6.06467 8.57442 6.64349C8.57442 6.77597 8.59908 6.90269 8.64396 7.0194L6.37379 8.99654ZM15.2115 6.064C15.499 6.0936 15.7791 6.14814 16.0496 6.2254L16.7101 5.53617C16.8433 5.59492 16.9873 5.62517 17.1328 5.62498C17.7117 5.62498 18.1809 5.15577 18.1809 4.57695C18.1809 3.99813 17.7117 3.52892 17.1328 3.52892C16.554 3.52892 16.0848 3.99813 16.0848 4.57695C16.0848 4.74325 16.1236 4.90048 16.1925 5.04014L15.2115 6.064Z" fill="white"/>
</svg>

