<svg width="14" height="18" viewBox="0 0 14 18" fill="none" xmlns="http://www.w3.org/2000/svg">
<path d="M1.14359 0.0589046C0.562267 0.24181 0.132591 0.720181 0.0314904 1.29704C0.00260463 1.45532 -0.00461682 3.79441 0.00260463 9.40472L0.0134368 17.2873L0.139812 17.53C0.316738 17.8677 0.482831 17.9767 0.843903 17.9943C1.30608 18.0189 1.26636 18.047 4.03939 15.7502C5.39703 14.6246 6.57773 13.6714 6.65717 13.6291C6.87381 13.5201 7.22044 13.5271 7.43709 13.6432C7.52374 13.6925 8.63585 14.5929 9.90682 15.6482C12.7665 18.0189 12.5463 17.843 12.7412 17.9274C12.9326 18.0119 13.3009 18.0259 13.4742 17.9521C13.6331 17.8852 13.8028 17.7023 13.9039 17.4913L13.9869 17.3154L13.9978 9.41879C14.005 4.417 13.9942 1.44125 13.9725 1.30056C13.8931 0.794046 13.5609 0.357885 13.0843 0.129251L12.8315 0.00965881L7.09046 0.00262451C1.60216 -0.00440979 1.33857 -0.000892639 1.14359 0.0589046Z" fill="#08A652"/>
</svg>
