<svg width="15" height="11" viewBox="0 0 15 11" fill="none" xmlns="http://www.w3.org/2000/svg">
<path d="M14.491 5.1462C14.0377 4.35995 11.5443 0.414535 7.3085 0.542035C3.39142 0.641201 1.12475 4.0837 0.508503 5.1462C0.446334 5.25388 0.413605 5.37603 0.413605 5.50037C0.413605 5.62471 0.446334 5.74685 0.508503 5.85453C0.954753 6.62662 3.34184 10.4587 7.51392 10.4587H7.691C11.6081 10.3595 13.8818 6.91703 14.491 5.85453C14.5532 5.74685 14.5859 5.62471 14.5859 5.50037C14.5859 5.37603 14.5532 5.25388 14.491 5.1462ZM7.65559 9.04203C4.60267 9.11287 2.61225 6.49912 1.98892 5.50037C2.69725 4.35995 4.546 2.02953 7.37934 1.9587C10.4181 1.88078 12.4156 4.50162 13.046 5.50037C12.3164 6.64078 10.4889 8.9712 7.65559 9.04203Z" fill="#029A51"/>
<path d="M7.49916 3.02122C7.00882 3.02122 6.5295 3.16663 6.12181 3.43904C5.71411 3.71145 5.39635 4.09865 5.20871 4.55166C5.02106 5.00466 4.97197 5.50314 5.06763 5.98405C5.16329 6.46496 5.3994 6.90671 5.74612 7.25343C6.09284 7.60014 6.53458 7.83626 7.0155 7.93192C7.49641 8.02758 7.99488 7.97849 8.44789 7.79084C8.9009 7.6032 9.28809 7.28544 9.56051 6.87774C9.83292 6.47005 9.97832 5.99072 9.97832 5.50039C9.97832 4.84288 9.71713 4.21229 9.25219 3.74736C8.78726 3.28242 8.15667 3.02122 7.49916 3.02122ZM7.49916 6.56289C7.28901 6.56289 7.08359 6.50058 6.90886 6.38383C6.73414 6.26708 6.59795 6.10114 6.51753 5.90699C6.43712 5.71285 6.41608 5.49921 6.45707 5.29311C6.49807 5.087 6.59926 4.89768 6.74786 4.74909C6.89645 4.6005 7.08577 4.4993 7.29187 4.45831C7.49798 4.41731 7.71161 4.43835 7.90576 4.51877C8.0999 4.59919 8.26584 4.73537 8.38259 4.9101C8.49934 5.08483 8.56166 5.29025 8.56166 5.50039C8.56166 5.78218 8.44972 6.05244 8.25046 6.25169C8.0512 6.45095 7.78095 6.56289 7.49916 6.56289Z" fill="#029A51"/>
</svg>
