<svg width="68" height="68" viewBox="0 0 68 68" fill="none" xmlns="http://www.w3.org/2000/svg">
<g filter="url(#filter0_d_125_2824)">
<circle cx="34" cy="30" r="27" fill="url(#paint0_linear_125_2824)"/>
</g>
<path d="M67 30L60.25 34.3301L60.25 25.6699L67 30Z" fill="#08A652"/>
<path d="M33.9999 26.3333C33.5137 26.3333 33.0474 26.5265 32.7036 26.8703C32.3597 27.2141 32.1666 27.6804 32.1666 28.1667V39.1667C32.1666 39.6529 32.3597 40.1192 32.7036 40.463C33.0474 40.8068 33.5137 41 33.9999 41C34.4862 41 34.9525 40.8068 35.2963 40.463C35.6401 40.1192 35.8333 39.6529 35.8333 39.1667V28.1667C35.8333 27.6804 35.6401 27.2141 35.2963 26.8703C34.9525 26.5265 34.4862 26.3333 33.9999 26.3333ZM33.9999 19C33.5467 19 33.1036 19.1344 32.7267 19.3862C32.3499 19.638 32.0561 19.9959 31.8827 20.4147C31.7092 20.8334 31.6639 21.2942 31.7523 21.7387C31.8407 22.1833 32.059 22.5916 32.3795 22.9121C32.7 23.2326 33.1083 23.4509 33.5528 23.5393C33.9974 23.6277 34.4582 23.5823 34.8769 23.4089C35.2957 23.2354 35.6536 22.9417 35.9054 22.5648C36.1572 22.188 36.2916 21.7449 36.2916 21.2917C36.2916 20.6839 36.0501 20.101 35.6204 19.6712C35.1906 19.2414 34.6077 19 33.9999 19Z" fill="white"/>
<defs>
<filter id="filter0_d_125_2824" x="0" y="0" width="68" height="68" filterUnits="userSpaceOnUse" color-interpolation-filters="sRGB">
<feFlood flood-opacity="0" result="BackgroundImageFix"/>
<feColorMatrix in="SourceAlpha" type="matrix" values="0 0 0 0 0 0 0 0 0 0 0 0 0 0 0 0 0 0 127 0" result="hardAlpha"/>
<feOffset dy="4"/>
<feGaussianBlur stdDeviation="3.5"/>
<feComposite in2="hardAlpha" operator="out"/>
<feColorMatrix type="matrix" values="0 0 0 0 0 0 0 0 0 0 0 0 0 0 0 0 0 0 0.15 0"/>
<feBlend mode="normal" in2="BackgroundImageFix" result="effect1_dropShadow_125_2824"/>
<feBlend mode="normal" in="SourceGraphic" in2="effect1_dropShadow_125_2824" result="shape"/>
</filter>
<linearGradient id="paint0_linear_125_2824" x1="63" y1="31" x2="23" y2="54.5" gradientUnits="userSpaceOnUse">
<stop stop-color="#08A652"/>
<stop offset="1" stop-color="#16CB6B"/>
</linearGradient>
</defs>
</svg>
