<svg width="27" height="22" viewBox="0 0 27 22" fill="none" xmlns="http://www.w3.org/2000/svg">
<path fill-rule="evenodd" clip-rule="evenodd" d="M2.50938 0H18.4C22.8183 0 26.4 3.58172 26.4 8V14.5054C24.0575 18.9612 19.3836 22 14 22C6.26801 22 0 15.732 0 8C0 5.0255 0.92763 2.26767 2.50938 0Z" fill="#6F7985"/>
<path d="M10.1998 8.4V7.3C10.1998 6.42479 10.5475 5.58542 11.1664 4.96655C11.7852 4.34768 12.6246 4 13.4998 4C14.375 4 15.2144 4.34768 15.8333 4.96655C16.4521 5.58542 16.7998 6.42479 16.7998 7.3V8.4H17.3498C17.6415 8.4 17.9213 8.51589 18.1276 8.72218C18.3339 8.92847 18.4498 9.20826 18.4498 9.5V13.9C18.4498 14.1917 18.3339 14.4715 18.1276 14.6778C17.9213 14.8841 17.6415 15 17.3498 15H9.6498C9.35807 15 9.07828 14.8841 8.87199 14.6778C8.6657 14.4715 8.5498 14.1917 8.5498 13.9V9.5C8.5498 8.895 9.0448 8.4 9.6498 8.4H10.1998ZM12.9498 12.1015V13.35H14.0498V12.1015C14.2595 11.9804 14.4234 11.7935 14.5161 11.5698C14.6087 11.3461 14.625 11.0981 14.5623 10.8642C14.4997 10.6303 14.3616 10.4236 14.1694 10.2762C13.9773 10.1288 13.742 10.0489 13.4998 10.0489C13.2577 10.0489 13.0223 10.1288 12.8302 10.2762C12.6381 10.4236 12.5 10.6303 12.4373 10.8642C12.3746 11.0981 12.3909 11.3461 12.4835 11.5698C12.5762 11.7935 12.7401 11.9804 12.9498 12.1015V12.1015ZM11.8498 7.3V8.4H15.1498V7.3C15.1498 6.86239 14.976 6.44271 14.6665 6.13327C14.3571 5.82384 13.9374 5.65 13.4998 5.65C13.0622 5.65 12.6425 5.82384 12.3331 6.13327C12.0236 6.44271 11.8498 6.86239 11.8498 7.3V7.3Z" fill="white"/>
</svg>
