<svg width="34" height="34" viewBox="0 0 34 34" fill="none" xmlns="http://www.w3.org/2000/svg">
<path fill-rule="evenodd" clip-rule="evenodd" d="M31.4852 4.12766L25.1131 15.188C25.0724 15.2703 25.0117 15.3409 24.9365 15.3935C24.8613 15.4461 24.774 15.4789 24.6828 15.4889C24.5916 15.4989 24.4994 15.4858 24.4145 15.4507C24.3297 15.4157 24.2551 15.3599 24.1975 15.2884C23.0148 13.8189 21.4079 12.7496 19.5956 12.226V12.2244C19.5159 12.2017 19.4424 12.1611 19.3807 12.1057C19.319 12.0504 19.2708 11.9817 19.2396 11.9049C19.2084 11.8281 19.1951 11.7452 19.2007 11.6625C19.2064 11.5798 19.2308 11.4994 19.2721 11.4276L23.8328 3.52947C23.8798 3.4416 23.9498 3.36823 24.0355 3.31734C24.1211 3.26644 24.219 3.23995 24.3187 3.24074L31.0167 3.31033C31.1119 3.31107 31.2054 3.33676 31.2876 3.38484C31.3699 3.43292 31.4381 3.50171 31.4855 3.58436C31.5329 3.66701 31.5578 3.76064 31.5578 3.85591C31.5577 3.95119 31.5327 4.04506 31.4852 4.12766ZM10.159 3.57357L14.7012 11.4403C14.7469 11.5117 14.7755 11.5927 14.7846 11.677C14.7937 11.7613 14.7831 11.8466 14.7536 11.926C14.7241 12.0055 14.6765 12.0771 14.6147 12.135C14.5528 12.193 14.4783 12.2358 14.397 12.26C13.5007 12.5309 12.6514 12.9381 11.8789 13.4673C11.1071 13.9956 10.4202 14.6384 9.84184 15.3734C9.78753 15.4462 9.71597 15.5043 9.63362 15.5426C9.55126 15.5808 9.46068 15.5979 9.37005 15.5925C9.27941 15.587 9.19156 15.559 9.11441 15.5112C9.03726 15.4633 8.97323 15.397 8.92809 15.3182L2.51324 4.12766C2.46586 4.04468 2.44109 3.9507 2.44141 3.85514C2.44173 3.75958 2.46714 3.66578 2.51509 3.58311C2.56303 3.50045 2.63184 3.43182 2.71463 3.38409C2.79742 3.33636 2.89129 3.3112 2.98685 3.31113L9.65271 3.3029C9.75372 3.29698 9.85439 3.31922 9.9435 3.36716C10.0326 3.41509 10.1067 3.48682 10.1574 3.57436" fill="#08A652"/>
<path fill-rule="evenodd" clip-rule="evenodd" d="M17.0549 11.3218C18.9771 11.3218 20.8562 11.8918 22.4545 12.9597C24.0527 14.0276 25.2984 15.5455 26.034 17.3214C26.7696 19.0974 26.9621 21.0515 26.5871 22.9368C26.2121 24.8221 25.2864 26.5538 23.9272 27.9131C22.568 29.2723 20.8363 30.1979 18.951 30.5729C17.0657 30.9479 15.1115 30.7555 13.3356 30.0199C11.5597 29.2843 10.0418 28.0386 8.97388 26.4403C7.90594 24.842 7.33594 22.963 7.33594 21.0407C7.33594 18.4631 8.3599 15.991 10.1826 14.1684C12.0052 12.3457 14.4773 11.3218 17.0549 11.3218Z" fill="#ADADAD"/>
<path fill-rule="evenodd" clip-rule="evenodd" d="M17.0532 11.3218C16.9411 11.3218 16.83 11.3263 16.7188 11.3303C19.2358 11.4176 21.6206 12.4789 23.3704 14.2904C25.1201 16.102 26.0981 18.5221 26.0981 21.0407C26.0981 23.5593 25.1201 25.9795 23.3704 27.791C21.6206 29.6025 19.2358 30.6638 16.7188 30.7512C16.83 30.7549 16.9411 30.7597 17.0532 30.7597C19.6308 30.7597 22.1029 29.7357 23.9255 27.9131C25.7482 26.0904 26.7721 23.6184 26.7721 21.0407C26.7721 18.4631 25.7482 15.991 23.9255 14.1684C22.1029 12.3457 19.6308 11.3218 17.0532 11.3218Z" fill="#888888"/>
<path d="M22.3903 16.1372C21.2559 15.0027 19.7632 14.2967 18.1667 14.1394C16.5701 13.9822 14.9684 14.3834 13.6344 15.2746C12.3005 16.1659 11.3168 17.4922 10.8511 19.0274C10.3854 20.5626 10.4663 22.2118 11.0803 23.694C11.6942 25.1762 12.803 26.3997 14.2179 27.156C15.6328 27.9123 17.2661 28.1546 18.8396 27.8416C20.4131 27.5287 21.8294 26.6798 22.8471 25.4397C23.8649 24.1996 24.4212 22.6449 24.4213 21.0406C24.4225 20.1298 24.2437 19.2277 23.8951 18.3862C23.5466 17.5447 23.0352 16.7804 22.3903 16.1372ZM17.4869 13.0107C19.3447 13.0107 21.145 13.6548 22.5812 14.8333C24.0173 16.0119 25.0004 17.6519 25.3629 19.474C25.7254 21.2961 25.4449 23.1875 24.5692 24.826C23.6935 26.4645 22.2767 27.7486 20.5604 28.4596C18.844 29.1706 16.9342 29.2645 15.1564 28.7253C13.3785 28.186 11.8427 27.047 10.8105 25.5023C9.7783 23.9577 9.31364 22.1029 9.49569 20.254C9.67774 18.4051 10.4952 16.6766 11.8089 15.3629C12.5537 14.6161 13.4387 14.0238 14.4131 13.6202C15.3876 13.2165 16.4321 13.0094 17.4869 13.0107Z" fill="#888888"/>
<path d="M18.0924 17.0015L18.8388 19.314L21.2752 19.3092C21.4093 19.3093 21.5399 19.3519 21.6484 19.4308C21.7568 19.5097 21.8375 19.621 21.8788 19.7486C21.9201 19.8762 21.9199 20.0136 21.8783 20.1411C21.8366 20.2686 21.7557 20.3797 21.647 20.4583V20.4597L19.6758 21.8874L20.4329 24.202C20.4746 24.3336 20.4726 24.4752 20.427 24.6055C20.3814 24.7359 20.2947 24.8478 20.18 24.9247C20.0653 25.0015 19.9287 25.039 19.7909 25.0316C19.653 25.0241 19.5213 24.9721 19.4155 24.8834L17.486 23.4756L15.5177 24.9113C15.4094 24.9903 15.2788 25.033 15.1447 25.0332C15.0106 25.0333 14.8799 24.991 14.7713 24.9122C14.6628 24.8335 14.582 24.7223 14.5406 24.5948C14.4991 24.4672 14.4992 24.3298 14.5408 24.2023H14.5392L15.2959 21.8874L13.3234 20.4599C13.212 20.3783 13.13 20.2628 13.0899 20.1306C13.0499 19.9984 13.0538 19.8568 13.1011 19.7271C13.1484 19.5973 13.2366 19.4864 13.3524 19.4111C13.4682 19.3358 13.6053 19.3002 13.7431 19.3095L16.1337 19.3143L16.8817 16.9975C16.923 16.869 17.0041 16.7569 17.1133 16.6776C17.2225 16.5982 17.3542 16.5557 17.4892 16.5562C17.6242 16.5566 17.7555 16.6001 17.8642 16.6802C17.9728 16.7603 18.0531 16.8729 18.0935 17.0017" fill="#888888"/>
<path d="M21.9567 16.1372C20.8223 15.0027 19.3296 14.2967 17.7331 14.1394C16.1365 13.9822 14.5348 14.3834 13.2008 15.2746C11.8669 16.1659 10.8832 17.4922 10.4175 19.0274C9.95176 20.5626 10.0328 22.2118 10.6467 23.694C11.2606 25.1762 12.3694 26.3997 13.7843 27.156C15.1992 27.9123 16.8325 28.1546 18.406 27.8416C19.9795 27.5287 21.3958 26.6798 22.4136 25.4397C23.4313 24.1996 23.9876 22.6449 23.9877 21.0406C23.9889 20.1298 23.8101 19.2277 23.4616 18.3862C23.113 17.5447 22.6016 16.7804 21.9567 16.1372ZM17.0533 13.0107C18.9111 13.0107 20.7114 13.6548 22.1476 14.8333C23.5837 16.0119 24.5668 17.6519 24.9293 19.474C25.2918 21.2961 25.0113 23.1875 24.1356 24.826C23.2599 26.4645 21.8431 27.7486 20.1268 28.4596C18.4104 29.1706 16.5006 29.2645 14.7228 28.7253C12.9449 28.186 11.4091 27.047 10.3769 25.5023C9.34471 23.9577 8.88005 22.1029 9.0621 20.254C9.24414 18.4051 10.0616 16.6766 11.3753 15.3629C12.1201 14.6161 13.0051 14.0238 13.9795 13.6202C14.954 13.2165 15.9985 13.0094 17.0533 13.0107Z" fill="#ECECEC"/>
<path d="M17.6588 17.0017L18.4053 19.3142L20.8416 19.3094C20.9757 19.3095 21.1064 19.3521 21.2148 19.431C21.3232 19.5099 21.4039 19.6212 21.4452 19.7488C21.4865 19.8764 21.4863 20.0138 21.4447 20.1413C21.403 20.2688 21.3221 20.3799 21.2134 20.4585V20.4598L19.2422 21.8876L19.9993 24.2022C20.0411 24.3339 20.0391 24.4755 19.9935 24.6059C19.9479 24.7363 19.8612 24.8484 19.7464 24.9252C19.6317 25.0021 19.495 25.0396 19.3571 25.032C19.2192 25.0245 19.0874 24.9724 18.9817 24.8836L17.0514 23.476L15.0831 24.9117C14.9747 24.9906 14.8442 25.0331 14.7101 25.0332C14.5761 25.0333 14.4455 24.9909 14.337 24.9122C14.2285 24.8335 14.1478 24.7224 14.1063 24.595C14.0648 24.4676 14.0648 24.3303 14.1061 24.2028H14.1045L14.8626 21.8876L12.8898 20.4601C12.7784 20.3785 12.6964 20.2629 12.6564 20.1308C12.6163 19.9986 12.6202 19.857 12.6675 19.7272C12.7148 19.5975 12.803 19.4866 12.9188 19.4113C13.0346 19.336 13.1717 19.3004 13.3095 19.3097L15.7001 19.3145L16.4481 16.9977C16.4893 16.8691 16.5704 16.757 16.6796 16.6776C16.7888 16.5982 16.9204 16.5557 17.0554 16.5562C17.1905 16.5566 17.3218 16.6001 17.4304 16.6803C17.5391 16.7604 17.6186 16.8728 17.6588 17.0017Z" fill="#ECECEC"/>
</svg>
