<svg width="16" height="16" viewBox="0 0 16 16" fill="none" xmlns="http://www.w3.org/2000/svg">
  <path d="M9.33333 11.333C9.33333 11.133 9.4 10.9997 9.53333 10.8663L12.8667 7.53301C13.1333 7.26634 13.5333 7.26634 13.8 7.53301C14.0667 7.79967 14.0667 8.19967 13.8 8.46634L10.4667 11.7997C10.2 12.0663 9.8 12.0663 9.53333 11.7997C9.4 11.6663 9.33333 11.533 9.33333 11.333Z" fill="#08A652"/>
  <path d="M9.33333 4.66667C9.33333 4.46667 9.4 4.33333 9.53333 4.2C9.8 3.93333 10.2 3.93333 10.4667 4.2L13.8 7.53333C14.0667 7.8 14.0667 8.2 13.8 8.46667C13.5333 8.73333 13.1333 8.73333 12.8667 8.46667L9.53333 5.13333C9.4 5 9.33333 4.86667 9.33333 4.66667Z" fill="#08A652"/>
  <path d="M2 7.99967C2 7.59967 2.26667 7.33301 2.66667 7.33301L13.3333 7.33301C13.7333 7.33301 14 7.59967 14 7.99967C14 8.39967 13.7333 8.66634 13.3333 8.66634L2.66667 8.66634C2.26667 8.66634 2 8.39967 2 7.99967Z" fill="#08A652"/>
</svg>
