<svg width="15" height="16" viewBox="0 0 15 16" fill="none" xmlns="http://www.w3.org/2000/svg">
<path d="M0.921283 1.90005L0.838783 2.37255C0.829858 2.41942 0.834531 2.46786 0.852251 2.51216C0.86997 2.55646 0.899996 2.59477 0.938783 2.62255C0.975227 2.64721 1.01754 2.66182 1.06143 2.66489C1.10533 2.66796 1.14926 2.65939 1.18878 2.64005L1.61378 2.41755L2.03878 2.64005C2.07387 2.65985 2.1135 2.67018 2.15378 2.67005C2.20674 2.67024 2.25839 2.65361 2.30128 2.62255C2.34007 2.59477 2.3701 2.55646 2.38782 2.51216C2.40553 2.46786 2.41021 2.41942 2.40128 2.37255L2.33128 1.90005L2.67628 1.56505C2.71003 1.53244 2.73392 1.49098 2.74522 1.44543C2.75651 1.39988 2.75476 1.35206 2.74015 1.30746C2.72554 1.26286 2.69868 1.22327 2.66262 1.19322C2.62657 1.16317 2.58279 1.14388 2.53628 1.13755L2.06378 1.07005L1.85128 0.640051C1.83081 0.597783 1.79885 0.562136 1.75906 0.537194C1.71926 0.512252 1.67325 0.499023 1.62628 0.499023C1.57932 0.499023 1.5333 0.512252 1.49351 0.537194C1.45372 0.562136 1.42175 0.597783 1.40128 0.640051L1.18878 1.07005L0.716283 1.13755C0.669779 1.14388 0.625995 1.16317 0.589942 1.19322C0.553889 1.22327 0.527022 1.26286 0.512416 1.30746C0.497809 1.35206 0.496053 1.39988 0.507347 1.44543C0.518642 1.49098 0.542532 1.53244 0.576283 1.56505L0.921283 1.90005ZM7.25128 3.12505C7.2366 3.08142 7.21015 3.0427 7.17486 3.01315C7.13957 2.98359 7.09681 2.96435 7.05128 2.95755L6.31878 2.84505L5.99128 2.14505C5.9714 2.1014 5.93937 2.0644 5.89904 2.03845C5.8587 2.0125 5.81175 1.9987 5.76378 1.9987C5.71582 1.9987 5.66887 2.0125 5.62853 2.03845C5.58819 2.0644 5.55617 2.1014 5.53628 2.14505L5.20878 2.84505L4.47628 2.95755C4.43076 2.96435 4.38799 2.98359 4.3527 3.01315C4.31741 3.0427 4.29097 3.08142 4.27628 3.12505C4.26239 3.16803 4.2604 3.21397 4.27052 3.25799C4.28065 3.30201 4.30251 3.34246 4.33378 3.37505L4.87128 3.92505L4.74378 4.70505C4.73821 4.75063 4.7453 4.79685 4.76427 4.83867C4.78324 4.88048 4.81336 4.91626 4.85132 4.94208C4.88928 4.96791 4.93362 4.98278 4.97948 4.98507C5.02534 4.98735 5.07094 4.97697 5.11128 4.95505L5.75128 4.60755L6.40378 4.97005C6.44064 4.98994 6.4819 5.00026 6.52378 5.00005C6.57561 5.00044 6.62628 4.98472 6.66878 4.95505C6.70802 4.92758 6.73855 4.88941 6.75672 4.84509C6.77489 4.80077 6.77994 4.75216 6.77128 4.70505L6.64378 3.92505L7.18128 3.37505C7.21472 3.34378 7.23893 3.30393 7.25128 3.25985C7.26362 3.21576 7.26362 3.16914 7.25128 3.12505Z" fill="#FFC73D"/>
<path d="M11.871 2.17248C11.3098 1.69557 10.6792 1.30694 10.001 1.01998C9.95172 0.998437 9.89684 0.993339 9.84446 1.00545C9.79209 1.01755 9.74501 1.04622 9.71021 1.08719C9.67541 1.12816 9.65475 1.17926 9.65128 1.2329C9.64782 1.28654 9.66173 1.33987 9.69096 1.38498C10.4812 2.62732 10.8549 4.08919 10.7578 5.55834C10.6606 7.02749 10.0978 8.42746 9.15096 9.55499C8.17876 10.7513 6.82638 11.5788 5.31866 11.8999C3.81095 12.221 2.23875 12.0163 0.863464 11.32C0.816015 11.2957 0.76204 11.2872 0.709418 11.2957C0.656796 11.3043 0.608284 11.3294 0.570964 11.3675C0.533553 11.4059 0.509469 11.4553 0.502267 11.5084C0.495065 11.5615 0.505125 11.6155 0.530964 11.6625C0.969619 12.4627 1.5528 13.1748 2.25096 13.7625C3.56765 14.891 5.24435 15.5116 6.97846 15.5125C7.19346 15.5125 7.41096 15.5125 7.63096 15.485C8.61921 15.396 9.57977 15.1107 10.4564 14.6458C11.333 14.1809 12.108 13.5457 12.736 12.7775C14.0115 11.2496 14.6357 9.28171 14.4739 7.29795C14.3121 5.31419 13.3773 3.47344 11.871 2.17248Z" fill="#FFC73D"/>
</svg>
