<svg width="21" height="21" viewBox="0 0 21 21" fill="none" xmlns="http://www.w3.org/2000/svg">
<path d="M17.387 12.6282C16.9367 12.1592 16.3934 11.9084 15.8176 11.9084C15.2465 11.9084 14.6986 12.1545 14.2296 12.6235L12.7624 14.0861C12.6416 14.0211 12.5209 13.9608 12.4048 13.9004C12.2377 13.8168 12.0798 13.7379 11.9452 13.6543C10.5708 12.7814 9.32172 11.6438 8.12376 10.1719C7.54336 9.43824 7.15332 8.82069 6.87008 8.19385C7.25083 7.8456 7.60372 7.48343 7.94732 7.13519C8.07733 7.00517 8.20734 6.87052 8.33735 6.74051C9.31243 5.76543 9.31243 4.50246 8.33735 3.52738L7.06974 2.25977C6.9258 2.11583 6.77722 1.96725 6.63792 1.81866C6.35933 1.53078 6.0668 1.23361 5.76499 0.955019C5.3146 0.509267 4.77598 0.272461 4.2095 0.272461C3.64303 0.272461 3.09512 0.509267 2.6308 0.955019C2.62615 0.959662 2.62615 0.959662 2.62151 0.964305L1.0428 2.55694C0.448469 3.15128 0.109512 3.87562 0.0352196 4.71605C-0.0762184 6.07188 0.323101 7.33485 0.629556 8.16134C1.38176 10.1904 2.50543 12.071 4.18164 14.0861C6.21539 16.5146 8.66238 18.4322 11.4576 19.7834C12.5256 20.2895 13.951 20.8885 15.5437 20.9906C15.6412 20.9953 15.7433 20.9999 15.8362 20.9999C16.9088 20.9999 17.8096 20.6145 18.5154 19.8484C18.52 19.8391 18.5293 19.8345 18.5339 19.8252C18.7754 19.5327 19.054 19.268 19.3465 18.9848C19.5462 18.7944 19.7505 18.5947 19.9501 18.3858C20.4098 17.9075 20.6513 17.3503 20.6513 16.7792C20.6513 16.2035 20.4052 15.6509 19.9362 15.1866L17.387 12.6282ZM19.0493 17.5175C19.0447 17.5175 19.0447 17.5221 19.0493 17.5175C18.8682 17.7125 18.6825 17.889 18.4829 18.084C18.181 18.3719 17.8746 18.6737 17.5867 19.0126C17.1177 19.5141 16.5652 19.7509 15.8408 19.7509C15.7712 19.7509 15.6969 19.7509 15.6273 19.7463C14.2482 19.658 12.9667 19.1194 12.0055 18.6597C9.37744 17.3875 7.06974 15.5813 5.15208 13.2921C3.56873 11.3838 2.51007 9.61933 1.80894 7.72488C1.37712 6.56871 1.21925 5.66792 1.2889 4.8182C1.33533 4.27494 1.54428 3.82455 1.92967 3.43916L3.51301 1.85581C3.74053 1.64222 3.98198 1.52614 4.21879 1.52614C4.51131 1.52614 4.74812 1.70258 4.8967 1.85117C4.90135 1.85581 4.90599 1.86045 4.91063 1.8651C5.19387 2.12976 5.46318 2.40371 5.74642 2.69624C5.89036 2.84482 6.03894 2.99341 6.18753 3.14663L7.45513 4.41424C7.94732 4.90643 7.94732 5.36146 7.45513 5.85365C7.32048 5.9883 7.19047 6.12296 7.05581 6.25297C6.66578 6.65229 6.29432 7.02375 5.89036 7.38592C5.88107 7.39521 5.87179 7.39985 5.86714 7.40914C5.46782 7.80846 5.54211 8.19849 5.62569 8.46316C5.63034 8.47709 5.63498 8.49101 5.63962 8.50494C5.96929 9.30358 6.43362 10.0558 7.13939 10.9519L7.14404 10.9566C8.42557 12.5353 9.77676 13.7657 11.2672 14.7083C11.4576 14.8291 11.6526 14.9266 11.8384 15.0194C12.0055 15.103 12.1634 15.1819 12.298 15.2655C12.3166 15.2748 12.3352 15.2887 12.3538 15.298C12.5116 15.377 12.6602 15.4141 12.8134 15.4141C13.1988 15.4141 13.4403 15.1727 13.5192 15.0937L15.1072 13.5057C15.2651 13.3479 15.5158 13.1575 15.8083 13.1575C16.0962 13.1575 16.333 13.3386 16.477 13.4964C16.4816 13.5011 16.4816 13.5011 16.4863 13.5057L19.0447 16.0642C19.5229 16.5378 19.5229 17.0253 19.0493 17.5175Z" fill="#08A652"/>
</svg>
