<svg width="13" height="11" viewBox="0 0 13 11" fill="none" xmlns="http://www.w3.org/2000/svg">
<path d="M6.4998 8.34481C7.49962 8.34481 8.31014 7.53429 8.31014 6.53447C8.31014 5.53464 7.49962 4.72412 6.4998 4.72412C5.49997 4.72412 4.68945 5.53464 4.68945 6.53447C4.68945 7.53429 5.49997 8.34481 6.4998 8.34481Z" fill="#08A652"/>
<path d="M11.9307 2.13791H10.2347C10.1261 2.13793 10.0202 2.10377 9.93214 2.04027C9.84403 1.97677 9.77815 1.88715 9.74384 1.78411L9.58039 1.29325C9.51166 1.08727 9.37986 0.908142 9.20367 0.781238C9.02747 0.654335 8.8158 0.586093 8.59866 0.586182H4.40021C4.1831 0.586238 3.9715 0.654605 3.7954 0.781599C3.6193 0.908594 3.48762 1.08778 3.41901 1.29377L3.25556 1.78411C3.22124 1.88715 3.15536 1.97677 3.06726 2.04027C2.97916 2.10377 2.8733 2.13793 2.7647 2.13791H1.06866C0.794301 2.13791 0.531176 2.2469 0.337173 2.4409C0.143169 2.6349 0.0341797 2.89803 0.0341797 3.17239V9.37928C0.0341797 9.65365 0.143169 9.91677 0.337173 10.1108C0.531176 10.3048 0.794301 10.4138 1.06866 10.4138H11.9307C12.2051 10.4138 12.4682 10.3048 12.6622 10.1108C12.8562 9.91677 12.9652 9.65365 12.9652 9.37928V3.17239C12.9652 2.89803 12.8562 2.6349 12.6622 2.4409C12.4682 2.2469 12.2051 2.13791 11.9307 2.13791ZM6.4997 9.37928C4.93142 9.37928 3.65487 8.10273 3.65487 6.53446C3.65487 4.96618 4.93142 3.68963 6.4997 3.68963C8.06797 3.68963 9.34453 4.96618 9.34453 6.53446C9.34453 8.10273 8.06797 9.37928 6.4997 9.37928ZM9.60315 4.20687C9.46597 4.20687 9.3344 4.15238 9.2374 4.05537C9.1404 3.95837 9.0859 3.82681 9.0859 3.68963C9.0859 3.55245 9.1404 3.42089 9.2374 3.32388C9.3344 3.22688 9.46597 3.17239 9.60315 3.17239C9.74033 3.17239 9.87189 3.22688 9.96889 3.32388C10.0659 3.42089 10.1204 3.55245 10.1204 3.68963C10.1204 3.82681 10.0659 3.95837 9.96889 4.05537C9.87189 4.15238 9.74033 4.20687 9.60315 4.20687Z" fill="#08A652"/>
<path d="M1.84486 1.62076H0.810379C0.741788 1.62076 0.676007 1.59351 0.627506 1.54501C0.579005 1.49651 0.551758 1.43073 0.551758 1.36214C0.551758 1.29355 0.579005 1.22776 0.627506 1.17926C0.676007 1.13076 0.741788 1.10352 0.810379 1.10352H1.84486C1.91345 1.10352 1.97923 1.13076 2.02773 1.17926C2.07623 1.22776 2.10348 1.29355 2.10348 1.36214C2.10348 1.43073 2.07623 1.49651 2.02773 1.54501C1.97923 1.59351 1.91345 1.62076 1.84486 1.62076Z" fill="#08A652"/>
</svg>
