<svg width="16" height="16" viewBox="0 0 16 16" fill="none" xmlns="http://www.w3.org/2000/svg">
  <path d="M6.66667 4.66699C6.66667 4.86699 6.6 5.00033 6.46667 5.13366L3.13333 8.46699C2.86667 8.73366 2.46667 8.73366 2.2 8.46699C1.93333 8.20033 1.93333 7.80033 2.2 7.53366L5.53333 4.20033C5.8 3.93366 6.2 3.93366 6.46667 4.20033C6.6 4.33366 6.66667 4.46699 6.66667 4.66699Z" fill="#08A652"/>
  <path d="M6.66667 11.3333C6.66667 11.5333 6.6 11.6667 6.46667 11.8C6.2 12.0667 5.8 12.0667 5.53333 11.8L2.2 8.46667C1.93333 8.2 1.93333 7.8 2.2 7.53333C2.46667 7.26667 2.86667 7.26667 3.13333 7.53333L6.46667 10.8667C6.6 11 6.66667 11.1333 6.66667 11.3333Z" fill="#08A652"/>
  <path d="M14 8.00033C14 8.40033 13.7333 8.66699 13.3333 8.66699L2.66667 8.66699C2.26667 8.66699 2 8.40033 2 8.00033C2 7.60033 2.26667 7.33366 2.66667 7.33366L13.3333 7.33366C13.7333 7.33366 14 7.60033 14 8.00033Z" fill="#08A652"/>
</svg>
