<svg width="9" height="9" viewBox="0 0 9 9" fill="none" xmlns="http://www.w3.org/2000/svg">
<path d="M4.5 0C3.60999 0 2.73996 0.26392 1.99994 0.758387C1.25991 1.25285 0.683138 1.95566 0.342544 2.77792C0.00194979 3.60019 -0.0871652 4.50499 0.0864683 5.37791C0.260102 6.25082 0.688685 7.05264 1.31802 7.68198C1.94736 8.31132 2.74918 8.7399 3.6221 8.91353C4.49501 9.08717 5.39981 8.99805 6.22208 8.65746C7.04435 8.31686 7.74715 7.74009 8.24162 7.00007C8.73608 6.26005 9 5.39002 9 4.5C8.99901 3.30683 8.52458 2.16281 7.68089 1.31912C6.83719 0.475418 5.69317 0.000993067 4.5 0ZM4.5075 7.125C4.45826 7.12525 4.40944 7.11579 4.36385 7.09717C4.31826 7.07855 4.27678 7.05114 4.24179 7.01649C4.17111 6.94652 4.13112 6.85133 4.13063 6.75188C4.13013 6.65242 4.16916 6.55684 4.23914 6.48616C4.30911 6.41548 4.4043 6.3755 4.50375 6.375H4.5075C4.60696 6.375 4.70234 6.41451 4.77267 6.48484C4.84299 6.55516 4.8825 6.65054 4.8825 6.75C4.8825 6.84946 4.84299 6.94484 4.77267 7.01517C4.70234 7.08549 4.60696 7.125 4.5075 7.125ZM5.22375 4.68938C5.12338 4.73772 5.03797 4.81233 4.97657 4.90529C4.91517 4.99824 4.88007 5.10609 4.875 5.21738C4.87556 5.31855 4.83674 5.41597 4.76675 5.48904C4.69677 5.5621 4.60111 5.60508 4.5 5.60888C4.45164 5.61063 4.40341 5.60267 4.35818 5.58546C4.31295 5.56825 4.27163 5.54214 4.23667 5.50868C4.2017 5.47522 4.1738 5.43509 4.15462 5.39066C4.13544 5.34622 4.12537 5.29839 4.125 5.25C4.12408 4.99897 4.19233 4.75254 4.32225 4.53775C4.45217 4.32296 4.63874 4.14811 4.8615 4.03238C5.00005 3.95606 5.11093 3.8379 5.17829 3.69478C5.24564 3.55165 5.26601 3.3909 5.2365 3.2355C5.20728 3.08745 5.13459 2.95147 5.02772 2.84493C4.92085 2.73839 4.78464 2.66613 4.6365 2.63738C4.52827 2.61734 4.41696 2.62138 4.31047 2.64919C4.20397 2.67701 4.1049 2.72792 4.0203 2.79832C3.93569 2.86872 3.86761 2.95688 3.8209 3.05655C3.77418 3.15621 3.74998 3.26493 3.75 3.375C3.75 3.47446 3.71049 3.56984 3.64017 3.64017C3.56984 3.71049 3.47446 3.75 3.375 3.75C3.27555 3.75 3.18016 3.71049 3.10984 3.64017C3.03951 3.56984 3 3.47446 3 3.375C3.0001 3.11044 3.07016 2.85061 3.20309 2.62187C3.33601 2.39313 3.52707 2.20361 3.75688 2.07254C3.98669 1.94148 4.24708 1.87352 4.51164 1.87558C4.77619 1.87763 5.03549 1.94961 5.26324 2.08423C5.49099 2.21884 5.67909 2.4113 5.80845 2.64208C5.93782 2.87285 6.00384 3.13374 5.99983 3.39827C5.99582 3.6628 5.92192 3.92156 5.78562 4.14831C5.64932 4.37506 5.45548 4.56173 5.22375 4.68938Z" fill="#F28A1A"/>
</svg>
