<svg width="29" height="28" viewBox="0 0 29 28" fill="none" xmlns="http://www.w3.org/2000/svg">
  <circle cx="14.4766" cy="14" r="13.5" fill="white" stroke="#08A652"/>
  <path d="M13.4353 19C13.2034 18.9991 12.9811 18.916 12.8157 18.7684L8.73323 15.0631C8.56889 14.9139 8.47656 14.7116 8.47656 14.5007C8.47656 14.2897 8.56889 14.0874 8.73323 13.9383C8.89758 13.7891 9.12047 13.7053 9.35289 13.7053C9.58531 13.7053 9.8082 13.7891 9.97255 13.9383L13.4353 17.0812L20.9806 10.233C21.062 10.1591 21.1586 10.1005 21.2649 10.0605C21.3712 10.0206 21.4852 10 21.6002 10C21.7153 10 21.8293 10.0206 21.9356 10.0605C22.0419 10.1005 22.1385 10.1591 22.2199 10.233C22.3013 10.3068 22.3658 10.3945 22.4099 10.491C22.4539 10.5875 22.4766 10.6909 22.4766 10.7954C22.4766 10.8998 22.4539 11.0033 22.4099 11.0997C22.3658 11.1962 22.3013 11.2839 22.2199 11.3578L14.055 18.7684C13.8896 18.916 13.6673 18.9991 13.4353 19Z" fill="#08A652"/>
</svg>
