<svg width="22" height="22" viewBox="0 0 22 22" fill="none" xmlns="http://www.w3.org/2000/svg">
<path d="M19.4895 2.34899H6.05113C5.83152 1.89507 5.36488 1.58105 4.82596 1.58105C4.07659 1.58105 3.46695 2.18816 3.46695 2.93444C3.46695 3.68076 4.07659 4.28796 4.82596 4.28796C5.57529 4.28796 6.18498 3.68076 6.18498 2.93444C6.18498 2.87244 6.18042 2.81146 6.17222 2.75165H19.2882V4.65345H4.79112C4.78806 4.65345 4.78519 4.65422 4.78218 4.65435H3.66783C2.91875 4.65435 2.30933 5.26137 2.30933 6.00752V7.15926C2.30933 7.27046 2.39947 7.36061 2.51063 7.36061H7.13918C7.25039 7.36061 7.34049 7.27046 7.34049 7.15926V6.00593C7.34049 5.63597 7.1904 5.30043 6.94789 5.05611H19.4895C19.6007 5.05611 19.6909 4.96596 19.6909 4.85476V2.5503C19.6909 2.43914 19.6007 2.34899 19.4895 2.34899Z" fill="#08A652"/>
<path d="M17.9465 6.59215C18.0578 6.59215 18.1479 6.50201 18.1479 6.3908C18.1479 6.2796 18.0578 6.18945 17.9465 6.18945H9.45721C9.34605 6.18945 9.25586 6.2796 9.25586 6.3908C9.25586 6.50201 9.34605 6.59215 9.45721 6.59215H17.9465Z" fill="#08A652"/>
<path d="M8.29579 3.31982H7.52515V4.08682H8.29579V3.31982Z" fill="#08A652"/>
<path d="M9.84047 3.31982H9.06982V4.08682H9.84047V3.31982Z" fill="#08A652"/>
<path d="M11.3854 3.31982H10.6147V4.08682H11.3854V3.31982Z" fill="#08A652"/>
<path d="M12.9293 3.31982H12.1587V4.08682H12.9293V3.31982Z" fill="#08A652"/>
<path d="M19.4895 8.87814H6.05126C5.83169 8.42401 5.36496 8.10986 4.82596 8.10986C4.07659 8.10986 3.46695 8.71705 3.46695 9.46342C3.46695 10.2097 4.07659 10.817 4.82596 10.817C5.57529 10.817 6.18498 10.2097 6.18498 9.46342C6.18498 9.40146 6.18042 9.34053 6.17226 9.2808H19.2882V11.1825H5.68959C5.68598 11.1825 5.68263 11.1833 5.67906 11.1835H3.66783C2.91875 11.1835 2.30933 11.7904 2.30933 12.5364V13.6881C2.30933 13.7993 2.39947 13.8894 2.51063 13.8894H7.13918C7.25039 13.8894 7.34049 13.7993 7.34049 13.6881V12.5349C7.34049 12.165 7.19036 11.8294 6.94776 11.5851H19.4895C19.6007 11.5851 19.6909 11.4949 19.6909 11.3837V9.0795C19.6909 8.96829 19.6007 8.87814 19.4895 8.87814Z" fill="#08A652"/>
<path d="M17.9465 13.1219C18.0578 13.1219 18.1479 13.0318 18.1479 12.9206C18.1479 12.8094 18.0578 12.7192 17.9465 12.7192H9.45721C9.34605 12.7192 9.25586 12.8094 9.25586 12.9206C9.25586 13.0318 9.34605 13.1219 9.45721 13.1219H17.9465Z" fill="#08A652"/>
<path d="M8.29579 9.84863H7.52515V10.6157H8.29579V9.84863Z" fill="#08A652"/>
<path d="M9.84047 9.84863H9.06982V10.6157H9.84047V9.84863Z" fill="#08A652"/>
<path d="M11.3854 9.84863H10.6147V10.6157H11.3854V9.84863Z" fill="#08A652"/>
<path d="M12.9293 9.84863H12.1587V10.6157H12.9293V9.84863Z" fill="#08A652"/>
<path d="M19.4895 15.4073H6.05117C5.8316 14.9533 5.36492 14.6392 4.82596 14.6392C4.07659 14.6392 3.46695 15.2464 3.46695 15.9927C3.46695 16.739 4.07659 17.3461 4.82596 17.3461C5.57529 17.3461 6.18498 16.739 6.18498 15.9927C6.18498 15.9307 6.18042 15.8698 6.17222 15.8099H19.2882V17.7118H5.68959C5.68654 17.7118 5.68366 17.7126 5.68065 17.7127H3.66783C2.91875 17.7127 2.30933 18.3197 2.30933 19.0658V20.2175C2.30933 20.3287 2.39947 20.4189 2.51063 20.4189H7.13918C7.25039 20.4189 7.34049 20.3287 7.34049 20.2175V19.0643C7.34049 18.6943 7.1904 18.3587 6.94789 18.1144H19.4895C19.6007 18.1144 19.6909 18.0243 19.6909 17.9131V15.6086C19.6909 15.4974 19.6007 15.4073 19.4895 15.4073Z" fill="#08A652"/>
<path d="M17.9465 19.248H9.45721C9.34605 19.248 9.25586 19.3382 9.25586 19.4494C9.25586 19.5606 9.34605 19.6507 9.45721 19.6507H17.9465C18.0578 19.6507 18.1479 19.5606 18.1479 19.4494C18.1479 19.3382 18.0578 19.248 17.9465 19.248Z" fill="#08A652"/>
<path d="M8.29579 16.3779H7.52515V17.1449H8.29579V16.3779Z" fill="#08A652"/>
<path d="M9.84047 16.3779H9.06982V17.1449H9.84047V16.3779Z" fill="#08A652"/>
<path d="M11.3854 16.3779H10.6147V17.1449H11.3854V16.3779Z" fill="#08A652"/>
<path d="M12.9293 16.3779H12.1587V17.1449H12.9293V16.3779Z" fill="#08A652"/>
</svg>
