<svg width="13" height="13" viewBox="0 0 13 13" fill="none" xmlns="http://www.w3.org/2000/svg">
  <path d="M6.69983 12.8251C3.31699 12.8251 0.574829 10.0829 0.574829 6.70007C0.574829 3.31724 3.31699 0.575073 6.69983 0.575073C10.0827 0.575073 12.8248 3.31724 12.8248 6.70007C12.8248 10.0829 10.0827 12.8251 6.69983 12.8251ZM6.69983 11.6001C7.99939 11.6001 9.24572 11.0838 10.1647 10.1649C11.0836 9.24597 11.5998 7.99963 11.5998 6.70007C11.5998 5.40051 11.0836 4.15418 10.1647 3.23525C9.24572 2.31632 7.99939 1.80007 6.69983 1.80007C5.40027 1.80007 4.15393 2.31632 3.23501 3.23525C2.31608 4.15418 1.79983 5.40051 1.79983 6.70007C1.79983 7.99963 2.31608 9.24597 3.23501 10.1649C4.15393 11.0838 5.40027 11.6001 6.69983 11.6001V11.6001ZM6.69983 3.6682L9.7317 6.70007L6.69983 9.73195L3.66795 6.70007L6.69983 3.6682V3.6682ZM6.69983 5.40096L5.40072 6.70007L6.69983 7.99919L7.99894 6.70007L6.69983 5.40096V5.40096Z" fill="white"/>
</svg>
