<svg width="9" height="10" viewBox="0 0 9 10" fill="none" xmlns="http://www.w3.org/2000/svg">
<path d="M5.61717 6.49129L6.74061 7.20795L6.446 7.7253L5.02796 6.80934V4.68905H5.61717V6.49129ZM8.17045 6.38528C8.17045 8.02638 6.94095 9.35368 5.42077 9.35368C4.6705 9.35368 3.99486 9.0314 3.49992 8.50557H1.49265C1.05663 8.50557 0.707031 8.12816 0.707031 7.65745V0.872529C0.707031 0.406066 1.05663 0.0244141 1.49265 0.0244141H1.88547V2.99282L2.86749 2.35673L3.84952 2.99282V0.0244141H6.20639C6.63848 0.0244141 6.99201 0.401825 6.99201 0.872529V3.95119C7.703 4.48974 8.17045 5.37602 8.17045 6.38528ZM7.38482 6.38528C7.38482 5.21488 6.50493 4.26499 5.42077 4.26499C4.33661 4.26499 3.45671 5.21488 3.45671 6.38528C3.45671 7.55568 4.33661 8.50557 5.42077 8.50557C6.50493 8.50557 7.38482 7.55568 7.38482 6.38528Z" fill="#F28A1A"/>
</svg>
