<svg width="20" height="20" viewBox="0 0 20 20" fill="none" xmlns="http://www.w3.org/2000/svg">
<path d="M8.75 0.0585938C7.01562 0.273438 5.42188 0.917969 3.98438 1.98438C3.39844 2.42188 2.42188 3.39844 1.98438 3.98438C0.90625 5.4375 0.269531 7.02734 0.0546875 8.78906C-0.0117188 9.36719 -0.0117188 10.6328 0.0546875 11.2109C0.269531 12.9727 0.90625 14.5625 1.98438 16.0156C2.42188 16.6016 3.39844 17.5781 3.98438 18.0156C5.4375 19.0938 7.02734 19.7305 8.78906 19.9453C9.36719 20.0117 10.6328 20.0117 11.2109 19.9453C12.9727 19.7305 14.5625 19.0938 16.0156 18.0156C16.6016 17.5781 17.5781 16.6016 18.0156 16.0156C19.0938 14.5625 19.7305 12.9727 19.9453 11.2109C20.0117 10.6328 20.0117 9.36719 19.9453 8.78906C19.7305 7.02734 19.0938 5.4375 18.0156 3.98438C17.5781 3.39844 16.6016 2.42188 16.0156 1.98438C14.5625 0.90625 12.9727 0.269531 11.2109 0.0546875C10.6523 -0.0117188 9.30469 -0.0078125 8.75 0.0585938ZM9.375 3.26562V5.24219L8.66406 5.21484C7.98438 5.19141 6.45703 5.0625 6.42188 5.02734C6.41406 5.01953 6.48438 4.81641 6.58203 4.57422C7.11328 3.24219 7.87109 2.17969 8.65625 1.65625C8.91406 1.48438 9.25 1.3125 9.36719 1.28906C9.37109 1.28906 9.375 2.17969 9.375 3.26562ZM10.8945 1.39062C11.1758 1.50781 11.6797 1.88672 11.9844 2.20703C12.3867 2.63281 12.793 3.23828 13.1094 3.88672C13.332 4.34766 13.6133 5.03516 13.5859 5.0625C13.5547 5.08984 12.0391 5.19922 11.3594 5.21875L10.5859 5.24609V3.26562V1.28516L10.6758 1.3125C10.7227 1.32422 10.8203 1.36328 10.8945 1.39062ZM6.53125 2.09766C6.09375 2.70703 5.65234 3.55469 5.375 4.31641C5.29688 4.53125 5.21484 4.74219 5.19922 4.78906L5.16406 4.87109L4.62109 4.76562C3.94141 4.63281 3.20312 4.44531 3.20312 4.40625C3.20312 4.34766 4.23828 3.33203 4.51172 3.11719C5.00781 2.73047 5.51953 2.40625 6.08984 2.12109C6.40234 1.96484 6.66797 1.83594 6.6875 1.83594C6.70703 1.83594 6.63281 1.95312 6.53125 2.09766ZM13.9102 2.12109C14.7383 2.53516 15.418 3.01172 16.0703 3.63281C16.4219 3.96484 16.8516 4.45312 16.8203 4.48047C16.7891 4.51172 16.0273 4.6875 15.4219 4.80078L14.8438 4.91016L14.7812 4.73047C14.3711 3.59375 13.9336 2.71875 13.4336 2.04688C13.3477 1.92969 13.293 1.83594 13.3125 1.83594C13.3281 1.83594 13.5977 1.96484 13.9102 2.12109ZM3.26172 5.70703C3.51953 5.77344 3.97266 5.875 4.26953 5.9375C4.56641 5.99609 4.81641 6.05078 4.82422 6.05859C4.83203 6.06641 4.80469 6.24219 4.76172 6.44531C4.60156 7.22266 4.53125 7.80469 4.42969 9.10938L4.40625 9.41406H2.80469H1.20703L1.23047 9.1875C1.36719 7.98438 1.625 7.09375 2.13281 6.06641L2.42578 5.47266L2.60938 5.53125C2.71094 5.5625 3.00391 5.64062 3.26172 5.70703ZM17.8867 6.10156C18.3711 7.07812 18.625 7.96484 18.7656 9.16797L18.793 9.375H17.1914H15.5938L15.5703 9.12891C15.5586 8.99609 15.5312 8.64062 15.5078 8.33984C15.4609 7.75 15.3594 7.03125 15.2422 6.45312L15.168 6.09375L15.25 6.07422C15.293 6.0625 15.6406 5.99609 16.0156 5.91797C16.3906 5.84375 16.8828 5.73047 17.1094 5.66797C17.3359 5.60938 17.5391 5.55469 17.5625 5.55078C17.5898 5.55078 17.7344 5.79688 17.8867 6.10156ZM7.28516 6.34766C7.67188 6.37891 8.30078 6.41797 8.67969 6.43359L9.375 6.45703V7.91797V9.375H7.5H5.625L5.64453 9.08984C5.72266 8.0625 5.82812 7.24609 5.96094 6.64062C5.99219 6.5 6.02344 6.35156 6.03516 6.30469C6.05078 6.23047 6.06641 6.22656 6.31641 6.25781C6.46484 6.27344 6.89844 6.31641 7.28516 6.34766ZM13.9922 6.42578C14.1719 7.29297 14.293 8.17969 14.3516 9.05078L14.3711 9.375H12.5H10.625V7.91016V6.44531H11.0547C11.5664 6.44531 12.6484 6.38281 13.3203 6.30859C13.9727 6.24219 13.957 6.23828 13.9922 6.42578ZM4.42969 10.8281C4.51953 11.918 4.54688 12.1875 4.61328 12.625C4.67578 13.0547 4.75781 13.4883 4.82422 13.7773C4.84375 13.8516 4.82031 13.8633 4.55859 13.9062C4.17188 13.9688 3.14062 14.1992 2.72656 14.3125L2.38281 14.4102L2.28906 14.2461C1.96484 13.6953 1.61328 12.7734 1.43359 12.0117C1.35156 11.6641 1.21094 10.7891 1.21094 10.6211C1.21094 10.6016 1.82812 10.5859 2.80859 10.5859H4.40625L4.42969 10.8281ZM9.41406 12.0469V13.4648L8.76172 13.4922C8.39844 13.5078 7.73828 13.5469 7.28516 13.582C6.83594 13.6172 6.37109 13.6484 6.25391 13.6484L6.04297 13.6523L5.99219 13.4375C5.85547 12.8516 5.71875 11.832 5.64844 10.8867L5.62891 10.625H7.51953H9.41406V12.0469ZM14.3516 10.8867C14.3086 11.4727 14.25 12.0391 14.1758 12.5156C14.0977 13.0195 13.9688 13.6641 13.9375 13.6953C13.9258 13.7031 13.6836 13.6875 13.3945 13.6523C12.9023 13.6016 12.1523 13.5469 11.0859 13.4922L10.625 13.4688V12.0469V10.625H12.5H14.3711L14.3516 10.8867ZM18.7656 10.8281C18.625 12.0312 18.375 12.8984 17.8867 13.8945C17.7344 14.2031 17.6016 14.4531 17.5859 14.4531C17.5703 14.4531 17.3828 14.4023 17.168 14.3398C16.7461 14.2188 15.8945 14.0234 15.4414 13.9414C15.2852 13.9141 15.1562 13.8906 15.1562 13.8828C15.1562 13.8789 15.1914 13.707 15.2344 13.5039C15.3867 12.7461 15.5469 11.5508 15.5469 11.1211C15.5469 11.0078 15.5586 10.8516 15.5703 10.7695L15.5977 10.625H17.1953H18.793L18.7656 10.8281ZM9.375 16.6602C9.375 17.7461 9.36719 18.6328 9.35547 18.6328C9.28906 18.6328 8.80078 18.3828 8.60938 18.25C8.16797 17.9531 7.57422 17.2734 7.23047 16.6875C6.83984 16.0156 6.36719 14.9297 6.44531 14.8828C6.49219 14.8555 8.12891 14.7266 8.63281 14.7148C8.81641 14.707 9.05859 14.6992 9.17188 14.6953L9.375 14.6875V16.6602ZM11.7578 14.7461C12.1914 14.7656 13.5625 14.8828 13.582 14.8984C13.5898 14.9062 13.5234 15.0859 13.4414 15.3008C12.8125 16.9102 11.9023 18.0742 10.9141 18.5195C10.7773 18.582 10.6562 18.6328 10.6445 18.6328C10.6328 18.6328 10.625 17.7461 10.625 16.6602V14.6836L10.9688 14.7031C11.1562 14.7148 11.5117 14.7344 11.7578 14.7461ZM5.33984 15.5273C5.66016 16.3984 6.12109 17.2812 6.58594 17.918L6.79297 18.1992L6.66797 18.1562C6.59766 18.1289 6.31641 17.9961 6.03516 17.8555C5.5 17.582 4.96875 17.2422 4.51172 16.8789C3.90234 16.3906 3.07422 15.5195 3.17188 15.4648C3.30859 15.3945 4.98828 15.0352 5.11328 15.0508C5.14062 15.0547 5.23828 15.2617 5.33984 15.5273ZM15.4883 15.1953C16.0898 15.3164 16.7891 15.4883 16.8203 15.5195C16.8516 15.5469 16.418 16.0391 16.0703 16.3672C15.4336 16.9727 14.7461 17.457 13.9648 17.8555C13.6875 17.9961 13.4023 18.1289 13.332 18.1562L13.207 18.1992L13.4102 17.918C13.8828 17.2734 14.3555 16.3672 14.6562 15.5391C14.75 15.2852 14.8438 15.0781 14.8633 15.0781C14.8867 15.0781 15.168 15.1328 15.4883 15.1953Z" fill="#08A652"/>
</svg>
