<svg width="29" height="28" viewBox="0 0 29 28" fill="none" xmlns="http://www.w3.org/2000/svg">
  <circle cx="14.4766" cy="14" r="13.5" fill="white" stroke="#C83532"/>
  <path d="M18.3447 17.3128C18.4292 17.3888 18.4766 17.4916 18.4766 17.5986C18.4766 17.7056 18.4292 17.8084 18.3447 17.8844C18.2588 17.9586 18.1439 18 18.0243 18C17.9047 18 17.7898 17.9586 17.7038 17.8844L13.9766 14.5549L10.2493 17.8844C10.1633 17.9586 10.0484 18 9.92884 18C9.80926 18 9.69436 17.9586 9.60839 17.8844C9.52394 17.8084 9.47656 17.7056 9.47656 17.5986C9.47656 17.4916 9.52394 17.3888 9.60839 17.3128L13.3413 13.9883L9.60839 10.6638C9.53668 10.5859 9.50003 10.4869 9.50557 10.3862C9.51112 10.2855 9.55846 10.1903 9.6384 10.119C9.71833 10.0477 9.82514 10.0054 9.93805 10.0005C10.051 9.99554 10.1619 10.0282 10.2493 10.0922L13.9766 13.4217L17.7038 10.0922C17.7912 10.0282 17.9022 9.99554 18.0151 10.0005C18.128 10.0054 18.2348 10.0477 18.3147 10.119C18.3947 10.1903 18.442 10.2855 18.4476 10.3862C18.4531 10.4869 18.4164 10.5859 18.3447 10.6638L14.6118 13.9883L18.3447 17.3128Z" fill="#C30A0A"/>
</svg>
